<svg xmlns="http://www.w3.org/2000/svg" id="Layer_1" width="100" height="100" viewBox="0 0 100 100"><style>.st0{fill:#d8d8d8}</style><path d="M100 50c0 27.6-22.4 50-50 50S0 77.6 0 50 22.4 0 50 0s50 22.4 50 50zM77.7 38.7c-.2-1.5-.4-3.1-.8-4.6-1.4-6.5-7-11.2-13.7-11.5-.5 0-1.1-.2-1.6-.3H38.4c-1.7.3-3.4.5-5 .9-6.1 1.7-10.4 7.1-10.8 13.4 0 .6-.2 1.2-.3 1.7v23.2c.3 1.8.6 3.6 1.1 5.4 1.8 6 7.1 10.2 13.4 10.4.6 0 1.3.2 1.9.3h22.7c1.6-.3 3.2-.4 4.7-.8 6.4-1.5 11-7.1 11.3-13.6 0-.6.2-1.2.3-1.9V38.7z" class="st0"/><path id="XMLID_1_" d="M50 40.8c-5.1 0-9.1 4.1-9.1 9.2s4.1 9.1 9.1 9.1 9.2-4.1 9.2-9.1-4-9.1-9-9.2H50z" class="st0"/><path d="M62.1 27.6c-8.1-.1-16.1-.1-24.2 0-5.6.1-9.3 3.2-10 8.9-.5 4.4-.4 21.5-.2 25.5.2 6.2 4.2 10.3 10.4 10.4 8 .1 16 .1 24 0 6.2-.1 10.2-4.1 10.3-10.3.1-8.1.1-16.1 0-24.2-.1-6.1-4.2-10.2-10.3-10.3zM50 64.2c-7.9 0-14.2-6.4-14.3-14.2 0-7.9 6.4-14.2 14.2-14.3 7.9 0 14.2 6.4 14.3 14.2 0 8-6.3 14.3-14.2 14.3zm14.7-25.6c-1.9-.1-3.4-1.6-3.4-3.5.1-1.8 1.6-3.3 3.5-3.2 1.8 0 3.3 1.5 3.3 3.4 0 1.8-1.5 3.3-3.4 3.3z" class="st0"/></svg>