<svg xmlns="http://www.w3.org/2000/svg" width="151.1" height="66.8" viewBox="0 0 151.1 66.8"><path fill="#fff" d="M71.1 1.3c-4.8-2.4-10.7-.7-15 1.9a21.1 21.1 0 0 0-4.5 3.9c-1.7 1.7-3.2 3.7-4.8 5.6L.8 66.4c5.4 0 10.7-3.7 14.9-6.8a83 83 0 0 0 6.4-5.4c1.4-1.4 3.6-3.1 4.3-5a92.6 92.6 0 0 0 13-2 39.5 39.5 0 0 0 14.3-6.5c6.8-5.2 9.3-13.3 8.6-21.6a25.1 25.1 0 0 0-.7-3.9c-.9-4.4-1.6-10 4.1-9.6A5 5 0 0 1 70 8.8c2.4 5.8-3.6 8.9-3.6 8.9a12.7 12.7 0 0 1 2.7.2 10.1 10.1 0 0 0 2.5-.2 6.2 6.2 0 0 0 3.6-2c3.3-4.3.3-12.2-4.1-14.4zM27.9 40.5l22.4-24.8c11.3 9.4-3.2 27.2-22.4 24.8z"/><circle cx="65.6" cy="10.9" r="2.3" fill="#fff"/><path fill="#fff" d="M58.7 43.5c-.4-.1-.5-.4-.7-.7s-.3-1.5.7-2.6a5.9 5.9 0 0 1 2.9-2 1.7 1.7 0 0 1 1-.1 1.6 1.6 0 0 1 1 .8.5.5 0 0 1 .5 0l1.1.9a.6.6 0 0 1-.1.4 8.2 8.2 0 0 0-1.4 2.6c.7-.1 1.5-.6 2.6-2.1.1-.2.1-.2.2-.1a.4.4 0 0 1 .1.3h-.1c-.5.9-2.3 3-4 3s-1-.6-.8-1.5a6.1 6.1 0 0 1-1.7 1.5c-.4.2-.7.2-1.3-.4zm3.5-2.7a11.9 11.9 0 0 0 .9-1.5c-1.7.6-3.3 2.4-3.3 3.6a6.6 6.6 0 0 0 2.4-2.1z"/><path fill="#fff" d="M66 43.8c-.4-.2-.8-.3-.8-.8a4.5 4.5 0 0 1 1.1-2.3 20.9 20.9 0 0 0 1.8-2.7.2.2 0 0 1 .3 0l.7.2c.2.1.2.3.2.5a1.3 1.3 0 0 1-.1.6 12.3 12.3 0 0 1 2.5-1.7l.7-.3c.1 0 .1.1.2.2s.2.1.2.2h-.1a17.4 17.4 0 0 0-5 5.1c-.7.9-.8 1.1-1 1.1zm5.2-.4a2 2 0 0 1-.6-1.4 2.9 2.9 0 0 1 .7-1.8 4.9 4.9 0 0 1 3.3-2.1 1.8 1.8 0 0 1 1.3.6 1.3 1.3 0 0 1 .6 1.2 3.6 3.6 0 0 1-.6 2 3.7 3.7 0 0 1-3.1 2.2 1.9 1.9 0 0 1-1.6-.7zm1.5-.4c1.6-.4 3.2-2.2 3.2-3.4s-.1-.4-.2-.4a5.3 5.3 0 0 0-2.5 2.3 1.8 1.8 0 0 0-.5 1.5zm5.6 1.3a1.5 1.5 0 0 1-1.2-.6c-.7-.7-.7-1.4.3-3l1.2-1.7a1 1 0 0 1-.7-.2 4.3 4.3 0 0 0-.1-.5c0-.2.1-.2.4-.2h1.2a18.8 18.8 0 0 0 1.7-2.7c.3-.4.3-.5.4-.5l.8.3c.4.2.6.4.6.8s-.4 1-1.1 2h2.3l1.6-2.4c.3-.5.3-.5.5-.5s.5.2 1 .6.3.6-.1 1.2a3.7 3.7 0 0 1-.6 1h1.8c.3 0 .3 0 .3.1l-.2.4c-.1.2-.2.2-.7.3l-1.8.2c-1 1.5-2.3 3.2-2.4 4.3h.1c.4 0 1.3-.2 3-1.4.1 0 .1 0 .1.1l-.3.6c-.1.2-.2.3-.6.6a5.1 5.1 0 0 1-2.9.9h-.7a2.9 2.9 0 0 1-.9-1c-.2-.5 0-1.1.7-2.2l1.4-2-2.3.2c-1.9 2.8-2.4 3.8-2.4 4.3a2.9 2.9 0 0 0 1.4-.8l.5-.3a.1.1 0 0 1 .1.1h.1a1.5 1.5 0 0 1-.4.6 3 3 0 0 1-2.1 1.4zm13.1-6.8c0-1.2.9-2.1 2.2-3a11.1 11.1 0 0 1 4.5-1.7c.6 0 .9.3 1.4.8s.4.8.2.8a26.1 26.1 0 0 0-4.3 1.6c-2 .9-2.5 1.6-2.5 2.2s.2.6.7.9a3 3 0 0 1 1.7 2.4c0 .8-.7 1.6-1.7 2.3a7.4 7.4 0 0 1-3.3 1.2 1.7 1.7 0 0 1-1.3-.7c-.7-.6-.7-1.1-.4-1.1 3.3-.5 5.2-1.6 5.2-2.6s-.3-.7-.8-1.1-1.6-1.1-1.6-2zm8.5 4.8c-.9 1.2-1.6 1.7-2.1 1.7a1.9 1.9 0 0 1-1.6-1.2c-.4-.6-.4-1.4.5-2.6a5.6 5.6 0 0 1 3.5-2.1 1.6 1.6 0 0 1 1.2.8h.3a1.5 1.5 0 0 1 .9.3c.4.1.5.3.5.5a4.3 4.3 0 0 1-.6 1.5 6.2 6.2 0 0 0-.6 1.8c.6-.1 1.3-.7 2.5-2.2.1-.2.1-.2.2-.1.2.1.1.2.1.3h-.1c-1 1.8-2.5 3.1-3.7 3.1s-1.3-.4-1-1.8zm1.2-2.9a3.9 3.9 0 0 0-1.9 1.2 2.7 2.7 0 0 0-1.1 2.2c.9-.3 1.8-1.2 3-3.4z"/><path fill="#fff" d="M107.3 43.6a.9.9 0 0 1-.1-1.1c.5-1.1 1.1-1.8 1.4-2.4a10 10 0 0 0-3.3 3.3c-.3.4-.5.5-.6.5l-1-.2a.6.6 0 0 1-.5-.6 4.3 4.3 0 0 1 1.2-2.4c1.7-2.2 2-2.6 2.3-2.6l.8.3c.4.3.5.4.5.7a4.2 4.2 0 0 1-.3.9 6.4 6.4 0 0 1 1.5-1.2l.7-.3a1.2 1.2 0 0 1 .8.4c.4.2.4.6.1 1.3s-1.2 1.8-1.7 2.9 1.8-.9 2.9-2.4c.1-.2.1-.2.2-.1.2.1.1.2.1.3h-.1c-.6 1-2.4 3.2-3.8 3.2a1.4 1.4 0 0 1-1.1-.5z"/><path fill="#fff" d="M111.8 43.5a2.3 2.3 0 0 1 0-3.2c1-1.2 2.7-2.3 3.8-2.3a1.6 1.6 0 0 1 1 .4c.6.5.5.8.2.9-2.1.5-3.9 2.4-4 3.7h.3a4 4 0 0 0 2.3-.9c.1-.1.2-.1.2 0v.4c0 .2-.2.3-.3.5a3.3 3.3 0 0 1-2.2 1.2 1.4 1.4 0 0 1-1.3-.7zm4.7-.4c-.2-.3-.2-1.2.6-2.4l1.2-1.7c-.4 0-.6 0-.7-.2s-.1-.4-.1-.5.1-.2.3-.2l1.3-.2a14.2 14.2 0 0 0 1.7-2.6c.3-.4.3-.5.4-.5l.8.3c.4.2.6.4.6.8a4.6 4.6 0 0 1-.9 1.8h1c.2 0 .3 0 .3.1a.8.8 0 0 1-.2.4c0 .1-.1.1-.4.2l-1.3.3a37.5 37.5 0 0 0-2.7 4.4h.3c.8 0 2.1-.8 3.2-2.3.1-.2.2-.2.2-.1.2.1.1.2.1.3h-.1c-.5.9-2.6 3.1-4 3.1a2 2 0 0 1-1.6-1z"/><path fill="#fff" d="M125.1 42.1c-1 1.2-2 2-2.7 2a1.9 1.9 0 0 1-1.2-.7c-.5-.6-.3-1.4.7-2.7a11.2 11.2 0 0 0 1.7-2.4c0-.2.1-.2.3-.2s1.6.2 1.6.9-1.6 2.3-2.2 3.7c1-.3 2.2-1.7 3.2-3.4s.4-.6.6-.6h.9a.6.6 0 0 1 .5.6c0 .3-.2.7-.8 1.6s-.9 1.7-.7 1.9a2.6 2.6 0 0 0 1.3-.8c.1-.1.1-.1.1 0s.1.1.1.2 0 .2-.2.3a2.7 2.7 0 0 1-2 1.3 1.9 1.9 0 0 1-1-.3 1.2 1.2 0 0 1-.2-1.4zm4.5 1.4c-.4-.1-.5-.4-.7-.7s-.3-1.5.7-2.6a5.9 5.9 0 0 1 2.9-2 1.7 1.7 0 0 1 1-.1 1.6 1.6 0 0 1 1 .8.5.5 0 0 1 .5 0l1.1.9a.6.6 0 0 1-.1.4 8.2 8.2 0 0 0-1.4 2.6c.7-.1 1.5-.6 2.5-2.1h.1c.1-.2.1-.2.2-.1a.4.4 0 0 1 .1.3h-.1c-.6.9-2.3 3-4 3s-1-.6-.8-1.5a6.1 6.1 0 0 1-1.7 1.4c-.4.3-.7.3-1.3-.3zm3.5-2.7a11.9 11.9 0 0 0 .9-1.5c-1.7.6-3.3 2.4-3.3 3.6a6.6 6.6 0 0 0 2.4-2.1z"/><path fill="#fff" d="M136.6 43.7c-.4-.3-.6-.5-.6-.8s.4-1.1 1.1-2.2A17.6 17.6 0 0 0 139 38c0-.1.1-.1.3-.1l.9.2c.2.2.3.4.1 1.1a20.3 20.3 0 0 1 2.6-1.8l.5-.2c.1 0 .2.3.2.4s-.1.3-.3.4a23.2 23.2 0 0 0-4.9 5c-.6.9-.7 1-1 1zm2.4 4.6a1.8 1.8 0 0 1-.6-1.3 1.7 1.7 0 0 1 .7-1.3c.9-.9 2.8-1.3 4.9-1.7l1.2-1.8c-1.3 1.3-1.8 1.5-2.3 1.5a1.2 1.2 0 0 1-.8-.2c-.4-.3-.4-.5-.2-1.3s1.6-3 2-4 .1-.1.2-.1h.7c.6.2.8.4.6 1a24.9 24.9 0 0 1-1.1 2.8 8.4 8.4 0 0 0 2.9-3.2c.2-.3.3-.4.5-.4l.9.2c.3.2.4.3.2.7a18.2 18.2 0 0 1-2.3 4.1 5.8 5.8 0 0 0 2.4-1.5h.1a1.7 1.7 0 0 1-.1.7c-.3.6-1.4 1.2-3 1.8-2.3 3.2-4.5 4.4-5.6 4.4a2 2 0 0 1-1.3-.4zm4.3-3.4a12.1 12.1 0 0 0-3.3 1.4 1.9 1.9 0 0 0-.6 1.4h.2c.9 0 2.2-.9 3.7-2.8z"/></svg>