<svg xmlns="http://www.w3.org/2000/svg" width="342" height="304.5" viewBox="0 0 342 304.5"><path fill="#91a2a5" d="M19.6 292.5c-1.6-1-.9-2.7-.9-4.1q0-72.6-.1-145.2c0-4.5 1.2-5.9 5.8-5.8 17.3.3 34.6.1 51.9.2 2.6 0 4.4-.5 5.1-3.2a2.3 2.3 0 0 1 1 1.2 6.1 6.1 0 0 1 0 3c-.3 1-.4 2-.7 3.1s-2.1 3.3-3.8.9-3.6-2.6-6-2.6c-14.9-.2-29.8-.2-44.7.1-1.5 0-5.3-1.7-4.3 2.8.9 1.6.6 3.6 1 5.3s-2.8 1.8-2.7 4.3 2.5 5.3 1.3 8.2-.5 5-.5 7.5v97.9c0 4.5.2 9-.9 13.5s1.4 8.9-1.5 12.9z"/><path fill="#809ba3" d="M324.6 292.5l-40.4.2H54.6l-4-.2c-1.2-.8-3.2-1.1-2.6-3.3a1.8 1.8 0 0 1 .9-1.3 9.5 9.5 0 0 1 7.2-.1 1.4 1.4 0 0 1 .7 1.3c-1.5 1.9-3.4.8-5.1.7 2.2.8 4.4.4 6.6.2h116.1c3.1 0 6-.7 9-.8a12.5 12.5 0 0 1 1.9.3 16.3 16.3 0 0 0 4.9.4q49.5.2 98.8 0a17.1 17.1 0 0 0 4.5-.3l1.9-.2h1.8c7.7 1 15.5.3 23.2.5 1.7.4 3.9-.1 4.2 2.6z"/><path fill="#8da0a6" d="M264.8 137.4c18.7 0 37.4.2 56.1.1 3.9-.1 5.6.9 4.7 5-1.6 1.9-4 2.4-6 3.6a6.3 6.3 0 0 1-3.6.2 15 15 0 0 1-3.9-2.2l-1.2-.9c-10-.3-19.9-1.4-29.8.7a3.6 3.6 0 0 1-2.9.1c-1.6.4.8-2.3-1.4-1.6a11 11 0 0 1-5.7-.1c-1.7-1.2-3.4-2.6-5.7-2.6-.7-.7-1.4-1.3-.6-2.3z"/><path fill="#3c572d" d="M223.2 24.4c2.1 0 5-1.8 6.3.1s0 5.1-1 7.5a16.1 16.1 0 0 1-4.8 6.1 4.5 4.5 0 0 0-1.8 5.2l-.6.4c-2.8-1.1-2.8-3.6-3.3-6s4.9-4.3 6-7.5a1.9 1.9 0 0 0-1-1.3c-2-.4-4-.1-6-.5-11.9-3.2-23.6-7.1-35.8-9-4.1-1.6-8.8.8-12.7-1.9a1.2 1.2 0 0 1 .6-1.5c6.9.1 13.8-.4 20.6.3a80.7 80.7 0 0 0 16.1 4h-.1c1.6 1.8 4 1.4 6.1 2h-.1c3.4 3 7.7.9 11.5 2.1z"/><path fill="#8da0a6" d="M325.6 143.5c.1 38 .1 76 .2 114.1 0 9.9-.1 19.9-.2 29.9a3.2 3.2 0 0 1-4.3 0c-1.8-5.1-1.3-10.3-.4-15.4a1.4 1.4 0 0 1 1.4-.9c1.8 2.2.5 4.4.6 6 .2-1.9.9-4.4.3-7-.2-24.7 0-49.5 0-74.2v-2.9c-.1-14.7-.2-29.3.1-43.9 0-2.1-1-4.9 2.3-5.7z"/><path fill="#889fa6" d="M48.6 289.5c-.1 1.5 1.5 1.9 2 3h-31c0-4.3 0-8.7.1-13 1.5-.5 1.8.8 2.4 1.7a14.2 14.2 0 0 1 .8 1.8 8.9 8.9 0 0 0 2.1 2.6c5.3 1.2 10.5 0 15.8.4 3.1.3 5.8 1 7.8 3.5z"/><path fill="#3b582b" d="M229.7 71.5c.1 8.8 1.8 17.7-2 26.2a24.6 24.6 0 0 0 0 10.8 5.2 5.2 0 0 1 .1 3.5c.3 1.6 1.3 3 .6 4.8a2.3 2.3 0 0 1-1.2 1 2.2 2.2 0 0 1-1.4-.8c-1.3-1.8-1.5-4-2.2-6a42.1 42.1 0 0 1-.4-5c0-4.6-.3-9.2 1-13.8a70.5 70.5 0 0 0-.3-32.3 4.1 4.1 0 0 1 .4-3.4c3-1.5 2.7 1.3 3.3 2.7 1.9 3.9 1 8.3 2.1 12.3z"/><path fill="#889fa1" d="M325.6 143.5c-1.6 1.4-.9 3.4-1 5.1v44.9c-4.7.4-4.2-3.3-4.3-6-.1-11.3-.2-22.5.1-33.8.2-2.2 3.3-3.9.9-6.5l-.9-.8-.8-.9c1.3-2.5 3.9-2.3 6-3z"/><path fill="#8b9da9" d="M321.6 287.5h4c-.1 1.7 1.1 3.6-1 5-1-1.5-2.6-.9-4-1-5.8-1.2-11.8-.2-17.7-.6-2.1-.1-4.2.5-6.3-.4a1.3 1.3 0 0 1 .1-.9c.6-1.8 4.4.5 3.7-2.9 6.6-1.2 13.1-.9 19.7-.2a6.5 6.5 0 0 1 1.5 1z"/><path fill="#b9652e" d="M129.5 39.2l1-.6c1.3-1.1 3.1-.3 4.6-1a6.1 6.1 0 0 1 4.2.3 2.8 2.8 0 0 1 1 .9c.5 1.1 1.6 1.5 2.5 2.1s1.9 2.1.1 3.3-5.9-.3-8.8-.4a41.3 41.3 0 0 0-16 2.5 12.7 12.7 0 0 1-3.4.4 4.5 4.5 0 0 1-3.1-1c-.5-3.1 2.2-2.4 3.7-3.1 4.4-2.5 9.5-2.1 14.2-3.4z"/><path fill="#40572d" d="M264.8 137.4a18 18 0 0 1 .8 2.1c1.7 1.9.3 4 .3 6a46.6 46.6 0 0 1-2.3 8.1c-1.3 2.5-2 5.4-5 6.6a2.9 2.9 0 0 1-2.2-.6c-1.2-3.3 1.4-5.7 2.2-8.5s1-4.2 1.6-6.3c1.5-4.2.6-8.7 1-13 1.2-1.3 1.8 0 2.5.6s-.2 3.5 1.1 5z"/><path fill="#435236" d="M140.6 25.4c4.7-3.8 9.7-7.1 15.9-8.1 1.3.3 3.1 0 3.3 2.1s-2.6 2-4.1 2.9c-4.7 1.3-8.4 4.9-13.2 6a3.1 3.1 0 0 1-2.1-.7 2 2 0 0 1 .2-2.2z"/><path fill="#af6945" d="M82.6 116.3a33.7 33.7 0 0 0-10.3 3.4c-2 1.2-3.7 1.5-3.6-1.9.2-5.5-.2-11 1.1-16.3a1.4 1.4 0 0 1 2-.1 2.8 2.8 0 0 1 .3 1.3c-.5 3.1-.1 6.3-.8 9.4s-.2 3.1 1.5 3.8 1.7.3.6-.9c1.1-2.1 3-2.2 5-2.3s3.5.5 4.6 2.2a1.5 1.5 0 0 1-.4 1.4z"/><path fill="#4f6141" d="M86.6 125.5a6.9 6.9 0 0 1 5.9-1.9c4.2.7 7-.8 8.8-4.6a2.4 2.4 0 0 1 1 1 6.2 6.2 0 0 1 .3 3c-1.3 4.7-5.6 4.3-9.1 5.2-2 .2-4.1-.1-6.1-.1a2.1 2.1 0 0 1-1.1-.7 1.7 1.7 0 0 1 .3-1.9z"/><path fill="#ad6942" d="M72.7 89.5c.4-4.5 2.5-8.3 4.6-12.2a4.3 4.3 0 0 1 2.2-.6 2.4 2.4 0 0 1 1.3.7c.7 3.2-1.5 5.7-2.2 8.6s-.7 5.9-3.6 7.7a2.4 2.4 0 0 1-1.3-2.9c.2-1 0-1.4-1-1.3z"/><path fill="#b46033" d="M101.5 119.1h-.2c-1.8-3.2-5-1.2-7.4-1.9a30.7 30.7 0 0 0-5.3-.7 1.8 1.8 0 0 1-.1-2.2 8 8 0 0 1 3.5-1.6 14.4 14.4 0 0 1 6.2-.1c1.7.6 3.6.5 5.2 1.5s-.4 3.6-1.9 5z"/><path fill="#be7240" d="M86.5 63.3c5.2-5.8 10.2-11.8 17.2-15.7a2.1 2.1 0 0 1 .4 2c-4.4 5-10.2 8.6-14 14.2a3.5 3.5 0 0 1-2.7 1.1c-.7-.3-1.3-.7-.9-1.6z"/><path fill="#3c572d" d="M229.7 71.5c-2.1-3.2-.5-7.2-2.1-10.5-.9-1.6-.3-4.2-3.1-4.5a3.1 3.1 0 0 1-.6-1.3 42.3 42.3 0 0 0-2.4-6.8c-.7-1.6-1.4-3.3 0-4.9l.4-.2a64 64 0 0 1 8 22.8 24.4 24.4 0 0 1-.2 5.4z"/><path fill="#515a45" d="M140.6 25.4v2c-1.7 2.4-3.9 1.5-6 1.1s-1.5-1.2-2.6-.8c.8-.3 1.5.2 2.2.4a1.6 1.6 0 0 1 .7 1.1l-.5.4a17.2 17.2 0 0 0-6.4.6c-.9.2-2.2.3-2.6-.8s.7-1.7 1.3-2.4c2.2-2.1 4.8-1.7 7.5-1.2s4.4 1.7 6.4-.4z"/><path fill="#465935" d="M159.6 19.5l-3.1-2.2c3.8-2.5 8-1.9 12.1-1.6.4.2.5.3.4.5s-.2.3-.3.3a2.8 2.8 0 0 0-.1.9 3.7 3.7 0 0 1-2 1.7l-3.9 1a4.4 4.4 0 0 1-2 .1 1.9 1.9 0 0 1-1.1-.7z"/><path fill="#5e7548" d="M242.6 116.3c.4.3 1 .5 1.2.9 2.4 5 6 7.5 11.8 6.4.6-.2 1.4.5 2.2.8-2.6 2.7-6.5 0-9.2 2.4a2.2 2.2 0 0 1-1.4.1c-2.9-2.2-5.8-4.4-5.6-8.6a3 3 0 0 1 1-2z"/><path fill="#b6672f" d="M72.7 89.5c.6-.1 1.6-2.7 1.9.2a25.4 25.4 0 0 1 .1 3.9c1.3 2.2-.1 4.4.2 6.7a6.2 6.2 0 0 1-.9 2.9 2.1 2.1 0 0 1-1.3.7c-.8-.2-1.5-.4-1.1-1.5a2.8 2.8 0 0 0-.1-.9c-1-2.8-.1-5.5 0-8.2a4.3 4.3 0 0 1 1.2-3.8z"/><path fill="#405434" d="M227.5 117.7l.3-5.7c1.2.9 1.6 3.3 3.9 2.5s1.9-.3 2.4.9a4.8 4.8 0 0 1-2.8 4.7c-1.9.2-4.2 1-3.8-2.4z"/><path fill="#41582a" d="M248.6 126.5c-.7-1.5-.1-2 1.4-2h7.8l1.8 1.1c1 1.4.4 2.4-.8 3.2a3.7 3.7 0 0 1-2.3-.4c-2.5-1.3-5.6.3-7.9-1.9z"/><path fill="#445638" d="M81.8 135.5a4.9 4.9 0 0 0-.4-1.1c.7-1.7.6-3.7 2-5.1s1.4-2.5 3.2-1.8h.1c-.1 4.5-1 8.9-1 13.4a3.1 3.1 0 0 1-.6 1.3c-2.4 1.1-2.2-1-2.5-2.2s.6-3.2-.8-4.5z"/><path fill="#486234" d="M205.8 20.3c-5.4 1.1-10.1-2.5-15.3-2.3-.3 0-.5-1.1-.8-1.7a99.7 99.7 0 0 1 16.1 4z"/><path fill="#c46528" d="M103.6 49.4a10.9 10.9 0 0 1 .1-1.8.8.8 0 0 1 .8-.2c2.5-.1 4.3-2.7 7.1-1.9h3.3c0 1.1-.7 1.6-1.5 2.2l-1.3.6c-2.6.7-4.6 3.3-7.7 2.7-.7-.3-1.2-.7-.8-1.6z"/><path fill="#486234" d="M168.7 16.5a1.9 1.9 0 0 1-.1-.8c7.1-.2 14.1-1.1 21.1.6z"/><path fill="#be7240" d="M111.6 45.5c-2.3.8-4.2 3-7.1 1.9 3.3-2.7 7.2-4.2 11.1-5.7a1 1 0 0 1 0 1.7c-1.7.1-3.2.3-4 2.1z"/><path fill="#4f5c3c" d="M131 37.5c.9-2.7 4-4.5 3.4-7.9l.4-.2c2.6.8 1.8 3.2 2.3 5a4 4 0 0 1-2.6 3.5 3 3 0 0 1-3.5-.4z"/><path fill="#b66c38" d="M115.6 43.4v-1.7c4.4-2.3 9.2-2.1 13.9-2.5-2.2 2.6-5.4.9-8.1 2z"/><path fill="#5e7747" d="M258.6 128.3c.4-.9.7-1.9 1-2.8 3.1 1.3 3.8 4 4.1 6.9l-2.1-.9c-1.4.5-1.7-.8-2.4-1.5a2.7 2.7 0 0 1-.6-1.7z"/><path fill="#4c5f34" d="M233.8 115.8a2.1 2.1 0 0 0-2.1-1.3c1.9-2.5 4.6-1.5 7-1.5a2.1 2.1 0 0 1-.2 2.9 4.2 4.2 0 0 1-4.7-.1z"/><path fill="#324523" d="M227.7 108.5c-2.2-3.8-.7-7.9-.9-11.8 0-.3.7.6.9 1z"/><path fill="#668442" d="M238.6 115.5a21.8 21.8 0 0 0 .1-2.5 5.9 5.9 0 0 1 3.9 3.3c0 .8-.1 1.6-.1 2.4-1.6.8-2.4-.4-3.2-1.4a4 4 0 0 1-.7-1.8z"/><path fill="#475c32" d="M223.2 24.4c-3.9-.7-8.3 2.1-11.5-2.1z"/><path fill="#ba8a63" d="M86.5 63.3l1.4 1.4a1.8 1.8 0 0 1-.3 1.2c-.7.7-1.6 1.3-2.4 2a8.3 8.3 0 0 1-2.6 1.9 1.2 1.2 0 0 1-1.1-.4c1.2-2.4 2.3-4.9 5-6.1z"/><path fill="#b46d49" d="M71.5 93.3c1.1 2.7-.3 5.4 0 8.2h-1.7c.6-2.8 1.2-5.5 1.7-8.2z"/><path fill="#bc7558" d="M79.6 77.4h-2.3a15.2 15.2 0 0 1 3.2-6 2.2 2.2 0 0 1 .9 2 5.4 5.4 0 0 1-1.8 4z"/><path fill="#b8774d" d="M88.6 114.5v1.9h-6v-1c1.8-1.4 3.8-2.2 6-.9z"/><path fill="#475c32" d="M211.8 22.3c-2.3 0-4.9 1.1-6.1-2 2 .7 4.3.5 6.1 2z"/><path fill="#75512c" d="M131 37.5h3.7c.4.3.4.6.1.9-1.3 2-2.9.5-4.3.3a3.7 3.7 0 0 1 .5-1.2z"/><path fill="#607253" d="M86.6 127.5l-3.2 1.8c.6-1.7 1.3-3.3 3.2-3.8z"/><path fill="#bb694e" d="M80.6 73.5c0-.8-.1-1.5-.1-2.2a1.9 1.9 0 0 1 1-1.9h1.1c.5 1.9.6 3.6-2 4.1z"/><path fill="#8c9da5" d="M22.6 143.5c-2 .1-3.1-.6-2.9-2.9s1.5-1.6 3.1-1.7c17.5-.8 35.1-.6 52.6-.1 1.9 0 3.3-.1 3.2 2.3 0 .7 0 2 1.1 1.7s.8-1.6 1-2.5 1.7 1.2 1.9 2.3a3.4 3.4 0 0 1-1.1 3.2 3.7 3.7 0 0 1-1.8.2c-16.2-.3-32.4 0-48.6-.1-1.7 0-3.3 0-4.3 1.7s-.6 5-.6 7.4v109.8c0 2.8.4 5.7-1.1 8.3a1.2 1.2 0 0 1-1.8.2c-1.4-1.9-1.1-4.1-1.1-6.2V165.4c0-7.3 1.5-14.6.4-21.9z"/><path fill="#8c9da5" d="M21.6 281.5l-1.9-2c1-3.9.9-7.8.9-11.8q0-51.4.1-102.9c0-1.8-1.4-4.5 1.9-5.3.9 1.7.5 3.6.5 5.4v102a49.5 49.5 0 0 0 .6 9.4c-.3 1.9-.6 3.8-2.1 5.2z"/><path fill="#395329" d="M81.5 145.6c0-1 .1-2.1.1-3.1 1.5-1.5-.9-2.9-.1-4.3l.3-2.7c1.2-.6 1.8-.4 1.8 1.1s-.5 4 .6 5.8c3.3 3.1 2.4 8 5 11.4a6.9 6.9 0 0 1 .5 1.3c2.5 5.3 4.3 6 9.3 3.8a34.2 34.2 0 0 1 8.4-3.1 3.7 3.7 0 0 1 2.1 0c3.1.6 5.3 2.7 7.7 4.5s3.3.8 4.7-.7a2 2 0 0 1 1.3-.4 2.3 2.3 0 0 1 1.9 2.6c-.8 1.9-2 3.2-4.2 3.3a15.7 15.7 0 0 0-5.3-.1c-3.1-.1-4.4-4.5-8-3.6a16.8 16.8 0 0 0-3.2.9 11.7 11.7 0 0 0-5.1 2.2c-6.5 2.2-10.1 1.1-13.5-4.5s-4.8-9-4.3-14.4z"/><path fill="#869b9e" d="M22.6 277.5v-118c-4.6-3.1-1.7-7.3-1.8-11 1.3.1.4 1.5 1.8 2.1v-7.1c1.8 1.6 1 3.7 1 5.6v124.4c.9 1.6 1.7 3.2-1 4z"/><path fill="#445638" d="M81.5 138.2c.5 1.4 2 2.8.1 4.3l-.9-2.2a18 18 0 0 1 .8-2.1z"/><path fill="#8d9da5" d="M22.6 277.5c1.5-1.1.9-2.7 1-4h.7c2.8 2.2 1.1 5.7 2.5 8.3s4.8 1.2 7.2 1.2h278.1a23.5 23.5 0 0 1 6.5.4c1.8.7 2.2 2.2 2 4h-21c-1 .9-2.4.9-3.6 1.2-4.5.5-9 .1-13.5.2-33.6.1-67.2-.2-100.8.1-38.9-.3-77.8 0-116.7-.1-2.5 0-5 .2-7.5-.5a16.8 16.8 0 0 0-8.9.1v1c-6.5-3.2-13.4-1.9-20.2-2.1-1.7 0-4.2 1.1-4.8-1.9a2.6 2.6 0 0 1-.5-.9c-.2-1.9-.2-2-1.5-1.1v-2c.2-1.3-.4-2.9 1-3.9z"/><path fill="#889ca7" d="M56.6 287.5h125c.8 1.1 4.5-.5 3 3-4.9 1.2-9.9 1-14.8 1H62.3c-1.9 0-4 .8-5.7-.9l.9-.5c40.2-.1 80.3 0 120.5 0H57.5l-.9-.4v-1c-.3-.3-.4-.5-.3-.7s.2-.5.3-.5z"/><path fill="#8b9da9" d="M184.6 290.5c.2-2.2-2.3-1.7-3-3h115c.6 1.3-.5 2-1 3h-1c-1.8 1.1-3.6-.2-5.3 0-32-.1-63.9.1-95.8-.1-1.6-.5-2.9-1.9-4.8-1.4s.1.9-.1.3.1-.3.5-.3 1.9-.2 2.7.7a.9.9 0 0 1-.7 1.2c-2.1-.1-4.4.5-6.5-.4z"/><path fill="#889ca7" d="M290.6 289.5a8.2 8.2 0 0 0 4 1c-1.5 1.6-3.4.9-5.1.9q-50 .2-99.7 0c-1.8 0-3.7.7-5.2-.9h7c1.7-1 3.6-.5 5.4-.5h88.2c1.8 0 3.7.4 5.4-.5zm6 1c6.5 0 12.9-.1 19.4 0 1.6 0 3.3-.6 4.6 1h-19.3c-1.6-.1-3.4.5-4.7-1zm-1 0c.4-1 .7-2 1-3h3a21.2 21.2 0 0 1 2.1 1.5c-1.5 1.2-3.9-.4-5.1 1.5z"/><path fill="#889fa6" d="M56.6 290.5c-2.1 1.4-3.9 0-5.9-1h5.9c.3.2.5.4.3.6s-.2.4-.3.4zm0-3v1h-8c2.5-2 5.4-.6 8-1z"/><path fill="#f4fbfd" d="M319.6 284.6H29.8c-1.7 0-4.6 1.7-5.1-1.9a3.7 3.7 0 0 1 3.2-1.3c6.2 1.2 12.5-1.1 18.8.3a31.2 31.2 0 0 0 12.9-.3c6.7-1.5 13.5-1.3 20.3-.7a242.3 242.3 0 0 0 33 .1c4-.3 7.9-.7 11.9-.7h136c17.1.1 34.2 1.2 51.4 1.5 4 0 5.9-1.6 5.7-6.8s.3-11.3.2-16.9c-.2-22.4.1-44.7-.2-67-.2-11 .1-22 .2-33 0-5.9-.1-5.6-5.8-6.2s-10.6-.4-16-.5c-2-.1-4.2-.1-6.6-2.9 6.7-.2 12.4-.1 17.1-.1-8.9-.5-18.9.7-28.9 0-4.6-.3-8.9.3-12.1 4.3a3 3 0 0 1-3.1 1.2l2.1-7.9a3.6 3.6 0 0 1 2.4-1.3c5.6-.8 11.2.6 16.7-.2h22.9a23.9 23.9 0 0 1 8.8 1.4h4.7a3.7 3.7 0 0 1 1.5 3.5c-2 20.1.1 40.2.2 60.3.1 17.5 0 35 .1 52.5.1 2.9.3 5.8-.5 8.6s-.2 7.1-.5 10.6c-.1 1.2.8 3-1.5 3.4z"/><path fill="#89a1ac" d="M280.6 143.5c.2-1.8 1.4-2 2.9-2h26.3c1.4 0 2.6.2 2.8 2s-2.4.9-3.7.9h-24.6c-1.3 0-2.7.1-3.7-.9z"/><path fill="#919da3" d="M280.6 143.5h32c-.5 2.7-2.6 1.3-4 1.4-8.3.3-16.6-.4-24.9.4h-17.1c-1.6-1.1-1.3-2.1.3-2.8s2.6-.3 4-.2 4.7-.6 6.7 1.1z"/><path fill="#87959a" d="M283.7 145.3c7.5-2 15.2-.3 22.7-.9 2.1-.1 4.4.9 6.2-.9l3 1.9z"/><path fill="#899ea0" d="M270.6 143.5c-1.2.8-4.2-1.9-4 1.9l-1.8.2c.3-2 .5-4.1.8-6.1 2.7-1.8 4.1-.6 5 2 .1.6.7 1.3 0 2z"/><path fill="#89a1ac" d="M270.6 143.5c-.1-.7-1.1-1.4 0-2s4.6-.2 6.9 0 0 1.3.1 2z"/><path fill="#95c053" d="M181.6 18.3c12.3 1.8 24.2 5.5 36 9.2a1.4 1.4 0 0 1-1 1.7c-4.7.7-8.7-1.2-12.9-2.8-1.9-.8-3.8-2.1-6.1-1.2.1 2.1 1.7 3.1 2.6 4.7a4.6 4.6 0 0 1 1 3.4c-.4 1.2-1 2.3-2.4 2.4a6.3 6.3 0 0 1-2.7-2.4c-.8-1.4-1-3.1-1.9-4.6-2.8-4.5-7.6-5.9-12.4-3.4-1 .6-1.8 1.5-3.1 1.4a2.2 2.2 0 0 1-.8-1.9 3.3 3.3 0 0 1 1.8-2.8c1.8-.6 1.3-1.3.4-2.3a3 3 0 0 1 .2-1.3 1.2 1.2 0 0 1 1.3-.1z"/><path fill="#619742" d="M216.6 28.5a9.4 9.4 0 0 0 1-1c2.4.2 4.9-.6 7.1.9-1 1-2.4.3-3.4.6 1.3.1 2.8-.4 4.2.5-.8 3.9-4.3 5.5-6.9 7.9A10.7 10.7 0 0 1 216 40a8.7 8.7 0 0 0-2.1 2.2 3.4 3.4 0 0 1-3.3 2 3.1 3.1 0 0 1-1.3-.6c-2.5-3.2-2.6-6.1 1.1-8.7a16.3 16.3 0 0 0 3.3-3.6 25.7 25.7 0 0 1 2.9-2.8z"/><path fill="#3b582b" d="M215.4 39.5a3.5 3.5 0 0 1 3.2-2.1c1.2 2 1.1 4.5 2.9 6.1 0 3.6 2 6.5 3.3 9.6.5 1.1.7 1.8-.5 2.5-3.4-1.4-3.4-5.1-5.2-7.6-.5-1-.9-2-1.4-2.9s-.5-1.2-.8-1.7-1.8-2.3-1.5-3.9z"/><path fill="#486234" d="M181.6 18.3l-1 .4c-2.4 1.7-5.2.9-7.8 1.2a12.2 12.2 0 0 1-3.8.2 3.1 3.1 0 0 1-2.4-1.7l2-1c4.3.5 8.8-1 13 .9z"/><path fill="#6b9c52" d="M225.5 29.5h-4.2c1.2-1.5 2.4-.8 3.4-1.1z"/><path fill="#889fa1" d="M320.6 270.5c.1-2.7.1-5.4.1-8.1s.4-3.6.4-5.4c0-19.6 0-39.2.1-58.8 0-1.9-1.3-6.2 3.4-2.7v76a1.3 1.3 0 0 1-2 0h-1c-.6-.1-.6-.7-1-1z"/><path fill="#86989c" d="M324.6 195.5c-4.3-1.9-2.9 1.7-2.9 3.3-.1 19.5-.1 39-.1 58.4 0 1.8.6 3.7-.9 5.2-.1-36.4-.1-72.9-.2-109.3 0-2.5-.2-5-.2-7.5h1.3c.8 2 1.6 4 0 6v35.9c0 2.5-.3 5.2 3 6.1z"/><path fill="#8d9b9f" d="M320.6 270.5l1 1v16h-1a24.7 24.7 0 0 0-1-2.9c2-4.6.2-9.5 1-14.1zm2 1h2c-.5 2.3-.9 4.6-1.4 6.9h-.6z"/><path fill="#8c9da5" d="M21.6 283.5l2-2.6v4.6a3.9 3.9 0 0 1-2-2z"/><path fill="#639448" d="M219.7 47.3l4.6 8.3a2.9 2.9 0 0 1 .2.9 71.6 71.6 0 0 1 1.1 35.9c-2.5-.1-2-2.3-2.5-3.8a3.4 3.4 0 0 1 .2-1.4c2.2-3.8 0-8.1 1.5-12-.8.7-1.5.4-2-.4-1.4-3.6-2.1-7.2-.7-11s-1.5-5.9-2.4-8.7-2.4-5.2 0-7.8z"/><path fill="#629444" d="M223.6 88.5c1.6.8.4 3.1 2 3.9-1.5 4.7-.8 9.4-1.2 14.2-.6 1.6-.1 3.3-.4 5-1 6.4-1.7 6.8-6.2 4.3a3.2 3.2 0 0 1-.8-3.7c4.4-3.6 3.5-8.7 3.1-13.4s.5-7.5 3.5-10.3z"/><path fill="#619841" d="M218.4 115.5c5.2 3.1 3.4-2.8 5.2-4s.8-.6 1.2-.1l1.5 5.2c.3 5.7-.1 6.1-5.5 5.5-2.3-1.6-3.8-3.6-2.4-6.6z"/><path fill="#6e9350" d="M220.5 121.4c4.2 1.1 5.2-1.6 5.8-4.8a1.4 1.4 0 0 1 .3.9c.7.7.5 1.7.9 2.6s-1.9 3.4 1.3 3.7a1.8 1.8 0 0 1 1.3 2.6c-.9 1.7-2.8 2.2-4.2 3.3a1.9 1.9 0 0 1-1.3 0 7.1 7.1 0 0 1-2.5-3.8 4.5 4.5 0 0 0-1.4-2.7 2.1 2.1 0 0 1-.4-1.1 1.9 1.9 0 0 1 .2-.7z"/><path fill="#58784e" d="M226.8 120.7c-.1-1.1-.1-2.2-.2-3.2l.9.2c.6 2.2 2.4 1.7 3.9 1.8l.5.4a1.7 1.7 0 0 1-.2 1.2c-.8 1.1-1.2 2.7-3.1 2.6s-1.1-2.1-1.8-3z"/><path fill="#6a944f" d="M224.8 111.4h-1.2c.2-1.7-.6-3.5.8-4.9.1 1.7.3 3.3.4 4.9z"/><path fill="#8da0a6" d="M321.6 151.5v-6c1.1 2 4.6 4 0 6z"/><path fill="#f69a2b" d="M117.5 45.4c6.9-3.7 14.3-3.3 21.7-2.6l4.4.6c1-.2 1.3.4 1.2 1.3a2.8 2.8 0 0 1-1.5 1.5c-2.1.7-4.4.4-6.5.9h-1.5a40.8 40.8 0 0 0-12.1-.4c-1.4 0-2.9.3-4.3.2a2.3 2.3 0 0 1-1.4-1.5z"/><path fill="#af6828" d="M144.8 44.4l-1.2-1c-.1-1.7-1.3-2-2.7-1.9s-1.8-.9-1.2-2.1a3.9 3.9 0 0 1 2.9-1.1c3.6.2 6.7 2 10 3.3 1.4.8 2.8 1.4 3.4 3.1a1.4 1.4 0 0 1-.8 1.3c-1.7.9-3.6.7-5.5.7s-3.9-.4-4.9-2.3z"/><path fill="#dbdbac" d="M134.8 38.3a2.8 2.8 0 0 0-.1-.9l1.9-3 .3-.6a1.9 1.9 0 0 1 2-.6 4.5 4.5 0 0 1 2.4 2.8c.1 1.3.2 2.6-1.6 2.8z"/><path fill="#fbb93b" d="M117.5 45.4l1.2 1c-1.7 2.7-3.7 2.7-6.1 1l2.3-1.8z"/><path fill="#658238" d="M139.7 38.8c1.2-.9 1-2 .5-3.2a2.5 2.5 0 0 1 1.6-.6c2.1 1.1 2 2.5.7 4.2l-2.8.2z"/><path fill="#fff" d="M262.7 153.5c4.1-6.8 10.7-7.9 17.8-7 10.2 1.3 20.5.8 30.8 1.8h-20.7a8.2 8.2 0 0 0 6.3 1.1c6.6-.8 13.3 1.5 19.9-.6 2.2-.7 2.7 2.1 2.7 3.9.1 11.7.3 23.3-.1 35-.1 3.1.3 6.2.3 9.3-.2 21.7-.1 43.3-.1 65 0 4.5.1 8.9 0 13.3-.1 6.2-2.4 8.2-8.4 7.3h-2c-63.6-1.7-127.2-1-190.8-.8-7.3 0-14.6.4-21.9.8-13.7.7-27.4-3-41.2.8-3.7 1-8-.8-11.8-.6-6.3.4-12.5-.3-18.8-.2-.1-3-.2-6-.4-9 .1-19.3.2-38.7.2-58q.2-35 .1-69.9c.8-.8 1.9-.6 2.9-.6h51.1a5.8 5.8 0 0 1 1.9.3 2.9 2.9 0 0 0 1 .3c1.4 4 2.5 8.2 4.3 12 3.3 7 6.6 8.2 14 5.9 1.2-1.5 3.8-.4 4.7-2.5a3.8 3.8 0 0 1 3.1-.6c3.3 1.6 5.5 5.6 10 4.3a6.6 6.6 0 0 1 2 .1c4.9.3 6.2-.8 6.2-5.7a9.5 9.5 0 0 1-.2-2.9l.3-1.6c.9-2.6-.5-5.7 2.2-7.8 1-.6 2.5-1 3.3-.4 3.7 2.8 7.8 1.5 11.8 1.5h52.7a17.2 17.2 0 0 0 7.7-1.3c2.4 0 4.6 1.3 7.2.8s3.2.3 3 2.4 1.5 2.6 3 3.3 1 3.5 3.4 3.4c2.3 3.7 4 8.4 10 6.1l2.4-.9a13.8 13.8 0 0 0 7.4-1.8 6 6 0 0 1 3.8.6c5.3 3.4 10.2 1.8 15-1 2.2-1.5 2.4-4.2 3.9-6.1z"/><path fill="#92c641" d="M258.6 128.3l1.2 1.2c2.4 5.1 1.4 10.5 1.5 15.9s-3.2 9.3-4.9 14a3 3 0 0 1-2.9 1.5 2.9 2.9 0 0 1-2.2-2.3c.1-1.3-.7-2.6-1.8-2.6-4.4-.2-8.9-2.7-13.3 0a3.7 3.7 0 0 0-2.4 2.7c-1.1 1.9-2.7 3-5 2.3-5.8-4.6-4.8-10.8-4-16.9a5.2 5.2 0 0 1 1.5-1.8c2.5-2.5 2.4-5.9 3-9s-.5-3.8 0-5.7c2.8-2.1 3.6-5.3 4.8-8.3a3.3 3.3 0 0 1 3.3-1.4c2.1 1.1 3 3.1 4.1 5.1s2.9 3.7 4.6 5.4 1.6-1 2.6-1.3c3.5-.2 4.5 1.7 4 5 1.2-2.1 1.1-5.2 4.6-4.5z"/><path fill="#415d2f" d="M253.6 160.5l2.8-1.1 2.4.2c-4.8 5.2-7.4 5.7-13.8 2.8-1.7-.8-3.6-1.2-5.4-1.9-2.2.9-4.6.7-6.7 2-.3 1.1-1.1 1.2-2.1 1.1s-1.7-.7-1.9-1.8a2.2 2.2 0 0 1 .8-1.3c2-.1 3-1.6 4-3a2.2 2.2 0 0 1 1.2-.9 16 16 0 0 1 12.1 1.9 12.8 12.8 0 0 0 6.6 2z"/><path fill="#9ac25b" d="M261.3 145.4c-.4-.7-1.3-1.6-1.1-2.1 1.1-4.7-.3-9.2-.4-13.8l1.8 2a26.2 26.2 0 0 1-.3 13.9z"/><path fill="#d8e3a9" d="M143 27.6c3.9-2.5 7.7-5.2 12.4-6.2 1-.5 1.9-.6 2.5.6s-3.3 2.6-4.7 4.2a69.5 69.5 0 0 0-7.7 6.5c-1.1 1.1-2.2 2.5-4.2 1.8a4.5 4.5 0 0 1-1.3-4.8c.6-1.3 1.8-1.7 3-2.1z"/><path fill="#3d532c" d="M143 27.6l-2.1 1.9c-1.3.7-.5 2-.9 3s-3 0-3.4 1.9c-1.9-1.2-.1-3.7-1.8-5a2.9 2.9 0 0 1-.2-.9c1.8-1.8 4.1.1 6-1.1z"/><path fill="#cddda3" d="M157.6 22.4c-.5-.9-1.3-.9-2.2-1l4.2-1.9 1.1.2c.7.5 2-.1 2.1 1.4-1.4 1.8-3.1 2.1-5.2 1.3z"/><path fill="#c2602f" d="M71.6 102.4l1.2 1.2c2.2 3.8.9 7.8.7 11.7l1.2.6a2.6 2.6 0 0 1-2.8 1.4 2.6 2.6 0 0 1-2-3c.8-3.9-.1-8.1 1.7-11.9z"/><path fill="#f9e9b0" d="M73.5 115.3c-2.1-3.8-.2-7.8-.7-11.7l.7-.3.5.4a7.7 7.7 0 0 1 1 4.4c0 2.9 1.8 2.5 3.7 2.2a4.8 4.8 0 0 1 2.8.8 1.4 1.4 0 0 1 .4 1.4c-.8 1.2-1.8 1.8-3.2 1.1s-3.6.7-5.2 1.7z"/><path fill="#9f542a" d="M78.7 113.6c1.2.1 2-.7 2.9-1.3 3.6-2 6.9-1.1 10 1.2-.7 1.1-1.9.9-3 1l-6 .9z"/><path fill="#d2dfa5" d="M92.6 127.6c2.9-1.9 7.9 0 9.1-5 .7-1.3.7-3 1.7-4.1 4.1-4.7 5.7-5 9.6-2.4.1 2.7-2.5 3-3.9 4.3a32.9 32.9 0 0 0-3.4 4.2c-3.6 5-6.3 5.9-12.8 4.4a1.1 1.1 0 0 1-.3-1.4z"/><path fill="#d8e4aa" d="M92.6 127.6v.8c-.5 1.9-2.4 2.3-3.4 3.8a12.8 12.8 0 0 0-1.9 4.1c-1.1 1.6.6 4.7-2.7 5a22 22 0 0 1 2.1-13.8c2-.3 3.9-.8 5.9.1z"/><path fill="#585027" d="M103.7 119.7c-.5 1-.8 2.3-2 2.9-.1-1.2-.1-2.3-.2-3.5s1.2-3.2 2.4-4.6a.9.9 0 0 1 1.2.4c.6 1.9-.8 3.2-1.4 4.8z"/><path fill="#fbe1a0" d="M77.8 85.5l2.7-8.1c-.1-1.1.6-1.3 1.5-1.3s1.7 1.9 1.8 3.3a8.8 8.8 0 0 1-.4 3.2c-1.7 4.1-1.8 8.7-3.6 12.8a1.2 1.2 0 0 1-1.5-.2c-2.1-3.1-.3-6.4-.5-9.7z"/><path fill="#fae6b2" d="M77.8 85.5c1.7 3.2.3 6.7.9 10-.1.2-.1.4-.2.6l-.6 1.1c-.7 1.8-1.3 3.8-4 3.2a15.7 15.7 0 0 1 .8-6.8c1-2.7 2-5.4 3.1-8.1z"/><path fill="#bc6434" d="M81.6 76.4l-1.1 1h-.9a6.7 6.7 0 0 1 1-3.9l2-4.1a3.6 3.6 0 0 1 2-2 2.4 2.4 0 0 1 .8 1.9 13.8 13.8 0 0 1-1.1 4.1 4.7 4.7 0 0 1-2.7 3z"/><path fill="#fbe49c" d="M91.6 113.5l-10-1.2v-.8a3.1 3.1 0 0 1 1.1-.9 34.1 34.1 0 0 0 6.2-1.9 9.2 9.2 0 0 1 3.7-.4 7.8 7.8 0 0 1 2.2.4c3 1.8 6.5 1.1 9.7 2a3.5 3.5 0 0 1 2.3 2c-.4 1.5-1.5 1.4-2.6 1.3s-3.9.3-5.8-.4z"/><path fill="#f0d293" d="M98.4 113.6h6.4l.2.4-.4.4h-.7c-1.8-.3-3.8.2-5.5-.8z"/><path fill="#ffc731" d="M82.6 82.4v-3c1.1-1.8 0-4.1 1.5-5.8s.8-2.1 2-2.5.6-2.6.8-4a1.9 1.9 0 0 1 .8-1.7 6.4 6.4 0 0 1 .2-.7l1.8-1.4c.9-.8 1.2-2.5 2.9-1.8a.1.1 0 0 0 .1.1c-.6-.3.3 0-.2-.4s.9-1.9 1.7-2.4 2.8-1.6 4.4-1.6 2.9.6 4.2-.4c5-.8 10.3-.6 14.6-4.7-2-1-4.3.9-6-.7s0-2.9 1.2-4a9.3 9.3 0 0 0 6.1-1 6 6 0 0 1 3.9-.9c4.3 1.2 8.8-.1 13.1.9h1c7.3.4 16.4 7.2 18.8 14-.1.9-.1 1.9 1.1 2.2a4.6 4.6 0 0 1 1.7.9 55.1 55.1 0 0 1 8.3 18.1c.3 1.1.2 2.5 2 2.3h1.4c4.7 1.8 4.7 1.8 2.5 8.2-3.8 4-7.8 7.6-13.7 8.1a2.7 2.7 0 0 1-1.5-2.2c0-.4.6-.5.7-.9s-.8.5-1.2.8h-1.2c-1.6-.9-2.8.2-4.1.7-3.1.4-6.2.8-8.8 2.9-1.1.9-2.6 1.6-3.8 1.1-5-2.3-9.3 0-13.8 1.7-2.1.8-4.5.8-5.3-2s-.4-5 3-5.7a67.9 67.9 0 0 1-11 .4c-2.6 0-5 .1-6.7 2.4a3.6 3.6 0 0 1-3.6 1.4c-5-1.3-9.1.8-13 3.4-1.3.8-3 .6-4.2 1.6l-1.1 1.8a3.3 3.3 0 0 1-1.3.7c-4.9-.6-2.9-4.2-3.1-6.9s1.1-4.9 1.3-7.4-.1-2.6 1.4-3 2.6.5 3.2 1.8 1.1 2.1 1.1 2.3c-.5-3.6-4.7-7.5-3.2-12.7z"/><path fill="#c2692a" d="M94.6 59.4a3.6 3.6 0 0 0-2 2l-2.9 1.9c3.1-6.1 8.8-9.7 13.9-13.9l1.2 1.1a2.5 2.5 0 0 1-.8 2.5l-2.2 1.6c-2.7 1.2-4.8 3.2-7.2 4.8z"/><path fill="#3d4e30" d="M134.6 28.5h-4.9c1.7-2 3.4-2.7 4.9 0z"/><path fill="#d1e5ac" d="M166.6 18.4c.7.2 1.7-.1 2.1.9a3.5 3.5 0 0 1-3 1.4 4.4 4.4 0 0 1-3.1-1.3c1.1-1.2 2.7-.5 4-1z"/><path fill="#dee9a1" d="M162.6 19.4h2.8c0 2.6-1.5 1.7-2.7 1.1l-2-.8z"/><path fill="#a3c871" d="M240.6 123.4l-2.9-4.9c-.5-1.8-.6-3.1 1.9-2.1s1.4 2.2 2.9 2.3c.2 3.6 3.5 5.2 5.1 7.9.3.5.3.9-.1 1.2a2.7 2.7 0 0 1-2 .1 52.3 52.3 0 0 1-4.9-4.5z"/><path fill="#92c349" d="M247.7 127.4a2.5 2.5 0 0 0-.1-.8h1c2.9.8 6.1-1.3 8.7 1.1-2.2.6-2.9 2.4-3.3 4.4s.3 2.9-1.9 2.3-1-1.6-.6-2.6c1.3-3-.5-3.8-2.9-4.2-.3.2-.6.2-.9-.2z"/><path fill="#f9e9b0" d="M73.9 100.4c2.7-.5 2.3-3.4 3.8-4.9 2.2 2.7.7 5.8.8 8.7-2.1 3.4-3.1-1-4.8-.6l-.2-.3c.1-.9.2-1.9.4-2.9z"/><path fill="#90bd52" d="M239.6 116.4c-1.8-.4-1.1 1.6-1.9 2.1l-3.1 1a2 2 0 0 1-2.8 0h-.4l2.4-3.7 4.8-.3z"/><path fill="#99c159" d="M84.6 141.3c2.2-1.5 0-4.4 2-5.9 2.1 5.7 2 11.8 3 17.7a4.5 4.5 0 0 1-1 1.4c-3-3.5-3.4-7.9-4.4-12.1.1-.3.3-.7.4-1.1z"/><path fill="#fbb93b" d="M103.5 52.3l1.3-1.8c2.9-.3 4.7-3.3 7.8-3.1.1 1.2-2.2 1.6-1 3.1-2.5 2.9-5.7 3.6-8.1 1.8z"/><path fill="#b6602a" d="M87.7 65.4c.1.7.1 1.5.2 2.2a1.9 1.9 0 0 1-.8 1.6 2.6 2.6 0 0 1-2.4.4c0-.7-.1-1.4-.1-2.2a3 3 0 0 1 3.1-2z"/><path fill="#89a1ac" d="M25.3 141.8h46.6v1H25.3z"/><path fill="#86949a" d="M80.5 145.3l-55.9.3c.9-1.4 2.3-1.1 3.6-1.1h49.1c1.2 0 2.4-.2 3.2.8z"/><path fill="#91c446" d="M88.6 154.5a4.1 4.1 0 0 1 .1-1.1c1.5-1.3 3-.6 4.6-.2a7.1 7.1 0 0 0 8.6-3.1c1.9-3.1 4.4-3.9 7.5-3.9a80 80 0 0 1 8.5.1c1.3.2 2.9.3 3 2s-1.4 2-2.7 2.3-1.6.1-2.2.8c1.5 3.2 4.1 1.3 6.2 1.6 2.1 1.9.4 3.2-.7 4.5a3.9 3.9 0 0 1-1.4.8c-2.8.9-4.9-.7-7.1-1.9-4.4-2.8-8.5-1.7-12.6.7s-8.3 2.5-11.7-1.7a1.4 1.4 0 0 1-.1-.9z"/><path fill="#669541" d="M88.7 155.4c3.6 2.9 7.2 3.2 11.2.6s9-4.2 13.7-.5c1.8 2.4 4.1 3.4 7 2a1.7 1.7 0 0 1 2.2-.2 1.8 1.8 0 0 1-.2 2.2c-1.4 2.3-3.4 3.2-6 1.9a24.5 24.5 0 0 0-7-4.9c-1.5-1.1-3.1-.4-4-.5a2.5 2.5 0 0 1 2.2.5c-2.9 1.2-5.8 2.3-8.5 3.6-5.9 2.7-8.5 1.6-10.6-4.7z"/><path fill="#3d572c" d="M122.6 159.5v-2c.9-4.5-1.5-9 0-13.5.5-1.4 1.1-2.6 2.8-3s1.8 1.1 2.2 2.2a5.9 5.9 0 0 1-.5 3.9c-1.3 2.4.1 5.4-1.2 7.9-.2.3-1.8 1.8.5 1.5 0 .9-.1 1.9-.1 2.9s0 2.4-1.8 2.1a3.3 3.3 0 0 0-1.9-2z"/><path fill="#f1f3eb" d="M117.7 165.4c-5 1.6-7.7-1.3-10.1-5 4.2-1.8 5 3.3 8.1 3.8 1-.2 2-.5 2 1.2zm6.9-3.9l1.8-2.1c3 3.1-1 4.1-1.8 6s-3.3-.7-5.1-.1c-.1-.8.2-1.2 1.1-.9s2.6-2 4-2.9zm-20.1-.5c-.5 2.9-2.8 2.4-4.7 2.5.7-2.4 3.1-1.7 4.7-2.5z"/><path fill="#3d572c" d="M116.6 161.4c2.4.5 4.3-.5 6-1.9-.9 3.8-3.2 3.7-6 1.9z"/><path fill="#303d22" d="M120.6 164.4l-1.1.9h-1.8l-2-1.2c1.6-1 3.3-1.2 4.9.3z"/><path fill="#6e9656" d="M107.8 156.5h-3c1.7-.9 3.3-1.6 4.8 0z"/><path fill="#8fa3ad" d="M56.6 290.5v-1h120.8v1zm234-1c-1.6 1.7-3.8.9-5.7.9h-93.3v-1h99z"/><path fill="#889ca7" d="M191.6 289.5h-4.5c2-1.5 3.3-1.2 4.5 0z"/><path fill="#92c641" d="M162.7 20.5c1 0 2.1.1 2.8-1.1h3.2l2.9-.9c2.9 1.5 6.1-.3 9 1.1 2.9 3-1.5 3.2-2 4.9a28.4 28.4 0 0 1-5 7.4c-1.5 1-3.5.9-5 2.1a6 6 0 0 1-2.7.7c-2.4-.2-3.1 2.3-4.8 3.2a11.5 11.5 0 0 0-3.9 5.3 1.6 1.6 0 0 1-1.6 1.1c-1.1-.4-2.4-.3-3.1-1.5s-4.3-2.1-6.2-3.6-4-1.7-2.1-4.2 2.2-4.9 5.6-2.7c.8.5 1.9.4 2.7 1.1a5.4 5.4 0 0 1 .9 1.2 3.3 3.3 0 0 0-.9-1.1c-4.1-2.5-4.1-2.5.2-7.8.8-2.4 3.6-1.7 4.9-3.2z"/><path fill="#90c641" d="M216.6 28.5a3 3 0 0 1-1.9 3 40.5 40.5 0 0 0-7.3 5.8c-3.8 3.3-5.3 3.5-9.2.1a2.1 2.1 0 0 1 .4-2l2-2c1.6-1.6 1.9-2.8-1-2.9s-3.3-3.9-4.7-6.8c8.2-1.2 14.2 5.3 21.7 4.8z"/><path fill="#365528" d="M178.6 26.3c3.5-3.2 7.4-5.1 12-2.7s6.2 5.2 6 9.8l-.6.5a2.6 2.6 0 0 1-2.1-.3c-4.6-5.7-10.6-3.3-16.3-2.6-2.7-2.2-.4-3.4 1-4.7z"/><path fill="#96c159" d="M178.6 26.3c-.3 1.5-2.4 2.6-1 4.5a.8.8 0 0 1-.2 1.1 3.7 3.7 0 0 1-3.1.2 1.4 1.4 0 0 1-.9-.8c.8-3 3-5 5.2-6.9z"/><path fill="#93c349" d="M199.6 30.5c1.4-1.5 3.4-1.7 4 0s-1.2 2.7-3 2.9c-.3-.9-.7-1.9-1-2.9z"/><path fill="#a1c66c" d="M180.6 19.5c-3-.6-6.2 1.1-9-1.1l9 .3z"/><path fill="#6fa642" d="M198.6 35.4v2a1.5 1.5 0 0 1-1.8.4c-1.4-1.3-.8-2.8-.3-4.2v-.2a1.9 1.9 0 0 1 2.1 2z"/><path fill="#95c251" d="M196.8 37.4h1.8c4.7 2.8 7.5-.4 10.7-3.2 1.4-1.3 2.9-3.1 5.4-2.7-.7 1-1.3 2.4-2.3 3-3.7 2.3-4.4 5.2-2.7 9-5.1 1.7-8.6-2.1-12.9-3.4a2.3 2.3 0 0 1-.7-1.4 1.5 1.5 0 0 1 .7-1.3z"/><path fill="#f7f9e6" d="M196.8 39.2c4.6.4 8.1 4.3 12.9 4.3a.5.5 0 0 0 .6.1c1.9.6 3.2 1.6 2.9 3.8s-1.7 4.4-4.7 4.2a2.4 2.4 0 0 1-.5-2c.5-1.8-.3-2.6-2.1-3.1s-5.5-2.8-8.5-3.9-3.2-1.7-.6-3.4z"/><path fill="#689545" d="M212.6 47.5c.5-2.1-1.4-2.7-2.3-3.9 1.6.1 2.3-1.4 3.3-2.1a9.1 9.1 0 0 1 4.1 1.9l.8 1.1c-1.1 2-3.2 3-5 4.3s-1.3-.4-.9-1.3z"/><path fill="#649154" d="M217.7 43.4c-1.6-.1-3.7.8-4.1-1.9.1-1.2.5-2 1.8-2s2.6 2 2.3 3.9z"/><path fill="#619841" d="M213.6 48.5c.5-2.6 2.9-3.1 4.9-4l1.2 2.8a14.9 14.9 0 0 0 1.5 7.4c1.6 3.5 3.5 7.2 1.6 11.5s1.1 6.1.8 9.3 1.7 8 0 12v1c-3 6.2-2.2 13-1.9 19.5.2 3.6-2.8 3.1-4.1 4.6s-1.6-.6-2.1-1.4c-2.3-6.5-1.5-13.1-.1-19.6 1-4 2.1-8 1.8-12.3.1-2.4.1-4.9 0-7.4s.3-7.3-1.3-10.8a8.3 8.3 0 0 1-.4-1.5c-.1-3.8-3.4-7-1.9-11.1z"/><path fill="#629444" d="M223.6 87.5v-12c.7-.2 1.8-1.4 1.8-.9-.5 4.1 1.1 8.3-.5 12.4-.1.3-.8.3-1.3.5z"/><path fill="#92c640" d="M216.6 111.5l1 1.1c0 1-.2 2.1.8 2.9l2.1 5.9v.4c-.9 1.9-.2 4.2-1.7 5.9s-6-.6-8.4 1.8c-.8 1.5-3 2.1-2.5 4.4s-1.9 1.9-3.3 2.2a28.4 28.4 0 0 0-3.1.6c-21.4.2-42.7.4-64.1 0a6.5 6.5 0 0 1-1.7-.8 2.1 2.1 0 0 1-.2-2.6c2.6-1.9 5.6-1 8.4-1.2 6.3.1 12.4-.7 17.7-4.6a10.8 10.8 0 0 1 1.8-2.4 6.9 6.9 0 0 1 2.8-.8c2.7.2 5.1-.4 6.5-3.1a16.6 16.6 0 0 0 1.2-3.1c1.1-1.8 2.3-3.4 4.4-4.1 3.9-.9 4.6-4.5 6.3-7.2 4.4-7.3 6-15.3 6-23.7 3.3-3.6 11.2-4 15.1-.7.8.7 1.2 2 2.7 1.6s1.8 1 2.5 1.6a12.1 12.1 0 0 0 1.8.5c1.8.6 3.3 1.5 3.7 3.6a13.8 13.8 0 0 0-.3 2c-1.5 3-2.8 6.1-2.8 9.5s-2.7 4.8 1 6.8c.8.3 1.1 2.5 2.3 3.5z"/><path fill="#d9e5aa" d="M229.7 160.5a1.9 1.9 0 0 1-.1.8c-2.1 3.3-4.3 2.5-6.4.1a9.2 9.2 0 0 1-2-6 79.2 79.2 0 0 1 1-15.4 40.5 40.5 0 0 1 .4-4.9c.5-1.4.7-3 1.1-4.4a2.3 2.3 0 0 1 1-1.2c.3-.1.5-.3.8-.3 2.4.2 2 2 2.1 3.6l-.3 1.5c-1 3 .6 6.5-1.7 9.2.2 5.9-1.6 12.4 4.1 17z"/><path fill="#38572a" d="M224.7 129.5a3 3 0 0 0-.2 1c-1.4 2.3-3.6 1.5-5.6 1.4a1.9 1.9 0 0 1-1-1 4.2 4.2 0 0 1 .5-3.6c.7-1.8-1-4.6 2.1-5.5a.6.6 0 0 0 0 .6 6.3 6.3 0 0 1 2 3.3c.8 1.2 2.2 2.1 2.2 3.8z"/><path fill="#a9cc6d" d="M226.7 133.5c-.1-1.5.4-3.2-1.2-4.3.4-2.4 2.9-1.7 4.1-2.7s.4.4.3.7-.1.3-.2.3a9.4 9.4 0 0 1 .9 5.9c-1.3 1.1-2.6 1.3-3.9.1z"/><path fill="#a7cf67" d="M229.7 127.5c0-.3-.1-.7-.1-1s.1-1.3.1-1.9a11.1 11.1 0 0 1 1.9-4.1c.1-.4.1-.7.2-1h2.8c-.2 3.5-.5 7-4.9 8z"/><path fill="#375327" d="M226.8 120.7a2.8 2.8 0 0 1 1.9 2.8q.5.3.3.6c0 .3-.1.4-.2.4s-2.3 1.6-3.1.6 1.1-2.8 1.1-4.4z"/><path fill="#9bc184" d="M222.5 125.7c-1.1-.9-2.2-1.7-2-3.3 1.8.3 3.2 1 2 3.3z"/><path fill="#d8e8ae" d="M228.8 124.5a1.1 1.1 0 0 1-.1-1c1.2-.8 1-2.8 2.9-3a5.9 5.9 0 0 1-1.9 4.1 1.4 1.4 0 0 0-.9-.1z"/><path fill="#f09b24" d="M154.5 61.2c-.3-4.7-4.4-6.7-7.4-9.3a28.3 28.3 0 0 0-10.4-5.6c2.1-1.7 4.6-.5 6.9-.8s4.7 1.7 7.2.6a24 24 0 0 1 13.4 12.6 2.5 2.5 0 0 1-.8 1.7l-1.1.6c-1.1.2-1 1.5-1.9 1.9a2.2 2.2 0 0 1-1.8-.2c-.5-2.8-3.2.4-4.1-1.5z"/><path fill="#fbc52e" d="M135.7 46.4c-4.4.1-8.9 1.3-13.1-.9 4.4-.4 8.8-1 13.1.9z"/><path fill="#f49740" d="M150.6 46.7c-2.6 1.6-4.9.7-7-1.2l1.2-1.1 4.7 1.1c.4.3 1.1.4 1.1 1.2z"/><path fill="#b7602d" d="M150.6 46.7l-1.1-1.2h6.2a2.3 2.3 0 0 1 2.6.7c3.5 3.4 7.4 6.5 10 10.8a3.8 3.8 0 0 1 .8 3.4c-.7 1.4-1.6 2.4-3.3 2.4a3.3 3.3 0 0 1-2.2-3.3c-2.9-5.7-7.6-9.7-13-12.8z"/><path fill="#98c344" d="M152.7 25.6c-.2.4-.1 1.1-.4 1.4-2.6 2.3-1.6 4.4.3 6.5-2.3.6-5.1-2.6-7 1.1-.7 1.3-1.8 1.7.6 3.4s6.8 0 6.3 4.7l-10-3.5c.1-1.3.4-2.7-.9-3.7s-.3-.9.1-1.2c4-2.5 6.5-6.9 11-8.7z"/><path fill="#ddcca4" d="M157.5 46.5l-1.8-1a5.3 5.3 0 0 0-.1-1.3l1-.8a1 1 0 0 1 1.4.3 2.1 2.1 0 0 1-.5 2.8z"/><path fill="#475c2e" d="M141.7 34.3v1.2h-1.4l-1.6-2.1a2.9 2.9 0 0 1 .9-1c.2-1.1-.1-2.4 1.4-3-1 1.9.4 3.3.7 4.9z"/><path fill="#484f38" d="M139.5 32.5l-.9 1-2 .9c-.4-2.9 1.3-2.3 2.9-1.9z"/><path fill="#020302" d="M216.7 198c-7.1 2.3-14 4.9-15.5 13.8a43.7 43.7 0 0 1-1.7 6.2c-.8 2.2-2.7 2.2-4.6 1.9s-1.5-2-1.2-3.3c1.9-10.4 3.6-20.8 6-31.1s7.6-16.5 16.9-20.3c2.7-1.1 5.3-1.2 7.5.4s1.8 4.5 1.2 7c-1.7 7.1-4.5 13.7-9.4 19.4.4.2.6.4.9.4 2.3.4 5.6-1.1 6.8 1.7s-1.5 4.8-3 6.9a9.3 9.3 0 0 0-1.3 1.5c-.8 2-5.4 2.5-2.8 5.7s5.4 5 9.6 3.4 8.1-6.1 10.7-10.6c.6-1.1.8-3.6 3-2.4a3.6 3.6 0 0 1 1.5 4.8c-3.2 6.9-8.1 11.7-15.8 13s-12.4-2.3-16.6-7.9c-1.6-2-1.1-2.9.9-4.1s5.1-3.5 7.6-5.3z"/><path fill="#030303" d="M97.4 186.4c-2.3-1.1-6.8.7-6.6-3.5s4.5-2.2 7-2.6a89.4 89.4 0 0 1 25.3.1c9.9 1.4 12.9 6.3 8.2 15.1-5.9 10.9-16 15.7-27.7 16.9-3.7.4-5.2 1.5-5.9 4.9s-1.9 6.7-2.6 10.1a5.3 5.3 0 0 1-4.3 4.2c-4 1-4.8.2-3.7-3.8s2.2-8.4 3.5-12.5c.7-2.2.2-3.3-2.2-3.8a33.7 33.7 0 0 1-6-2.3c-1.2-.6-2.3-1.5-1.4-3.2s1.5-1.7 3.2-1.3c8.6 2.3 8.5 2.2 11.4-6.2 1.4-3.9 1.5-8.3 5-11.2 1.7-1.3 3.9-2.1 5.5-.9s.4 3.7-.1 5.5c-1.1 3.5-2.1 7-3.1 10.5s-.2 3.2 2.3 2.7c7.4-1.6 13.8-4.8 17.5-11.9 2.4-4.5 1-7.1-4-7.3a168.3 168.3 0 0 0-21.3.5zm47.3 65.1c-1.7 5.7-3.2 11.5-6 16.8s-4.8 7.1-9.7 7.5-6.4-.8-6.8-5.1c8.9 0 10-.7 13.1-9.2 2-5.2 3.5-10.6 5.1-16a31.6 31.6 0 0 1 2.9-6.8 5.4 5.4 0 0 1 5.3-3.1c2.6.2 3.2 2.5 3.6 4.7 1.1 5.6-.9 11.2-.6 16.8 0 1.7-.6 3.3.2 5.2 2.2-1 2.6-3.3 3.5-5.1 2.5-5.2 4.7-10.5 7.3-15.7a22.7 22.7 0 0 1 3.4-4.9c1.3-1.6 3.2-1.7 5-1.1s1.9 2.5 1.8 4.2c-.6 7.4-1.4 14.8-1.9 22.3a22.9 22.9 0 0 0 .4 7.4c.8 3.2-.9 3.8-3.2 4.1s-3.9-.7-3.7-3.4c.5-6.1.9-12.2 1.4-18.3-.2-.8 1.6-2.5-1-2.3-2.8 5.2-5 10.8-8.7 15.5-1.7 2.1-3.5 4.2-6.6 3.5s-3-3.6-3.4-6a56.5 56.5 0 0 1-.4-5.9c1.1-2.9-.2-5.7.2-8.6-.1-.6-.8.3-.2.1s.4 0 .4.3a5 5 0 0 1-1.4 3.1zm29-29.9c-4.3.1-8.7-.3-12.2-3.7s-2.8.3-3.6 1.2c-3.8 4.4-8.3 7.1-14.4 6.6s-8.4-3.4-7.5-8.9 4-13.6 6.5-20.3c1.1-2.8 3.8-2.7 6-1.9s.9 3 .3 4.6c-1.8 5.1-3.6 10.3-5.5 15.4-.8 2.2-.6 4.2 1.1 5.4s3.6.3 5.1-.9a21.1 21.1 0 0 0 8.1-11.5c2.5-9.9 12.8-16.7 22.8-15a11.4 11.4 0 0 1 4.6 1.8c1.7 1.1 3.1 2.8 1.5 5s-3.1 2.9-5.5 1.1c-5.1-4-9.8-1.9-14.3 3-2.1 2.3-3.2 5.2-1.8 8.3s4.3 4.3 7.7 4.7c7.3.7 12.3-3 16.5-8.3.9-1.1 1.2-3.9 3.5-2.4s1.9 3.6.7 5.7c-3.6 6.6-10.2 10-19.6 10.1z"/><path fill="#040404" d="M215.6 233.6c-1.3 3.5-3.7 4.2-6.9 3.3s-4.7-1.7-7.2-2-5.8.5-6.1 4.2 1.9 4.7 5.3 4.3 7-.4 10.4 1 3.8 4.6.8 6.8-12.9 3.7-16.5.6-6.4-.5-8.4 2.3-2.1 8.6 1.8 10.7c5.6 2.9 11.6 2.4 17.5 1.2a51.8 51.8 0 0 1 5.3-1.4c1.2-.1 3-1.9 3.8.4s-.8 3.4-2.7 3.9c-7.8 2-15.6 3-23.5.8-4-1.1-7.4-2.9-8.8-7.3s.1-11 6.3-15.3c2-1.4 3.3-2.3 2.3-5.4-1.4-4.8 2.4-9.4 8.4-10.1a39.2 39.2 0 0 1 18.2 2z"/><path fill="#fdfdfd" d="M97.4 186.4a74.6 74.6 0 0 1 22.6-1.8c5.2.4 6.7 3.2 4.6 7.9-4.6 10.1-13.4 13.4-24.3 14.6 1.5-5.4 3-10.4 4.4-15.4s1.7-5.8-4.1-4.4c-.9-1-2.1-.8-3.2-.9z"/><path fill="#f7fcfd" d="M205.6 147.5c-5.4 2.7-11.2 1.9-16.9 2h-39.3c-7.3-.1-14.7.6-21.7-2a1.2 1.2 0 0 1 .4-1.7c1.9-.9 3.9-.7 5.9-.7h64.9c2.3 0 4.7-.5 6.6 1.4a3.1 3.1 0 0 1 .1 1z"/><path fill="#8e9ea4" d="M127.7 146.5v1c-.5 2.6.8 5.5-.9 8-1.3-2.6-.6-5.3-.4-7.9s.3-2.8.5-4.1c3.4-1 6-3.8 9.6-4.6a3.1 3.1 0 0 1 2.1.2 3.7 3.7 0 0 1 1.3 1.7c1.8 2.4 4.3 1.3 6.6 1.1s1.2-2.4 2.5-3.1a3.8 3.8 0 0 1 3.6.3 5.2 5.2 0 0 1 1.5 1.8c4.8 2.5 9.9.6 14.8 1.2 7.9-.2 15.8-.1 23.7-.1 3.7 0 7.3 0 10.8-1.2 1.4-.5 2.6-.6 3 1.2s-.2 3-1.8 3.8a11.9 11.9 0 0 1-4.6-.1c-22.7-.4-45.4-.2-68.2-.2-1.3.6-2.9.1-4.1 1z"/><path fill="#434f38" d="M222.5 155.4c.9 7 2.2 8 7.1 5.9a2.4 2.4 0 0 0 1.2 2.3c-6.6 2.5-8.3 1.5-11.3-7.1a4 4 0 0 1-1-2.2 7.5 7.5 0 0 1 .7-4.9c1.2-1.1 2.5-2.1 2.9.6s-.3 3.7.4 5.4z"/><path fill="#f7fcfd" d="M216.6 153.5c-1.8-.5-5.7 1.5-3.9-3.4.8-2.4-1.5-1.6-2.5-1.5s-3.6 1.4-4.6-1.1c3.7-3.8 8.3-2.1 12.5-2.1a3.5 3.5 0 0 1 1.4.6 2 2 0 0 1 .4 1.3 2 2 0 0 0-1.1 2.3 4.2 4.2 0 0 1-1.4.9 1.4 1.4 0 0 0-.2 1.4 1.9 1.9 0 0 1-.6 1.6z"/><path fill="#232323" d="M148.3 191.6c-2 0-3.9-.3-3.8-2.8s2.2-2.9 3.9-3 4 .5 3.8 2.9-1.8 3-3.9 2.9z"/><path fill="#ecf0e6" d="M216.6 149.5h2c1.2 1.5 0 3.4.8 5v2.1c-3.1 1-2.3-1.7-2.9-3v-2c.1-.8-.5-1.5.1-2.1z"/><path fill="#e6ebe0" d="M232.9 162.5c2-1.5 3.8-3.7 6.7-2-1.4 3.6-4.2 2.3-6.7 2z"/><path fill="#2d3d1f" d="M126.4 147.6c.1 2.6.3 5.3.4 7.9l-.3 1c-.7-.2-1.7 2.3-1.7.2s1-6.1 1.6-9.1z"/><path fill="#9e9e9e" d="M144.7 251.5c-.6-1.7 1-2.5 1.5-3.9a18.3 18.3 0 0 1-.5 9c-.8-1.6.5-3.6-1-5.1z"/><path fill="#c2c2c2" d="M164.8 249.5a3.7 3.7 0 0 1 1.6-2.7c.3 1.8.7 3.5-.6 5-.3-.8-.7-1.5-1-2.3z"/><path fill="#679741" d="M253.6 160.5c-2 1.9-4.2 1-5.9-.1-4-2.9-8.5-3.3-13.2-3.1.4-2.2 2.5-1.4 3.8-2.2 5-1.4 9.4.1 13.2 3.4z"/><path fill="#92c54b" d="M251.5 158.5c-4.2-1.3-8.1-4.6-13-2.3-.9-.6-2.1.2-2.9-.8 3.6-2.2 12.9-2.2 16 .3.9.7 3 1.9-.1 2.8z"/><path fill="#9dc751" d="M226.7 133.5h3.9c-.7 3.5-.7 7.1-3.1 9.9-1.8-3.1-1.7-6.5-.9-9.9z"/><path fill="#91c54a" d="M254.7 144.3c-.3 1.3.3 3-1.8 2.9s-1.8-1.4-1.9-2.5 1.2-2.3 2.5-2.4.9 1.3 1.2 2z"/><path fill="#95c848" d="M240.6 123.4c2.5.3 3.8 2.2 5 4.1a1.4 1.4 0 0 1 0 2c-1.6-2.1-5.2-2.5-5-6.1z"/><path fill="#bcd38b" d="M226.6 133.4l.9 9.9-1.9.2c.4-3.4-.9-6.9 1-10.1z"/><path fill="#a8d165" d="M245.6 129.5v-2h3c-.3 1.2.7 2.8-.9 3.5s-1.6-.7-2.1-1.5z"/><path fill="#9cc661" d="M235.6 155.4c1 .1 2.1-.2 2.9.8-1.3.5-2.9-.2-4 1.1l-.8.2c-1.6-2.8 1-1.7 1.9-2.1z"/><path fill="#92c349" d="M254.6 137.2c-.4.3-.8.8-1 .7a1.2 1.2 0 0 1-.8-.9c0-.7.4-1.3 1.1-1s.4.7.7 1.2z"/><path fill="#fbe9ba" d="M73.7 103.6c2.3-1.5 2.9.6 3.9 1.9a3 3 0 0 1 1.4 1.9c.1.8-.9 1.6.1 2.4a1.4 1.4 0 0 1-.4 1.6c-5.1.7-5.2.6-5-7.8z"/><path fill="#fee98b" d="M78.7 111.4v-1.9c.8-1.1 2-1 3.1-.8a2.5 2.5 0 0 1 1.2.8 1.9 1.9 0 0 1-.3 1.9h-4z"/><path fill="#9ac450" d="M88.6 131.5c.7-1.9 2.6-2.1 4-3.1 6 .7 11-.3 13.5-6.7.4-.9 1.6-1.6 2.4-2.3l.7.2c1.8 4.9-3 11.1-8.2 10.7-.3-.1-1-.4-.8 0s-.7 2-1.6 2.1c-3.4.3-6.9 1.3-10-.9z"/><path fill="#47582a" d="M104.6 114.4c.1-.3.1-.6.2-.8s1.6 0 1.8-1.1a4.4 4.4 0 0 1 3.6-1.2 6.3 6.3 0 0 1 3.6 1.3c1.3 1.2 2.5 2.4 2.4 4.4a2.8 2.8 0 0 1-1.2 1.6c-1.7.4-1.9-.7-2.1-1.9-4.6-3.8-6.6.6-9.2 3z"/><path fill="#9ac450" d="M112.9 116.7l1.7 1.9a1.3 1.3 0 0 1-.1 1.9c-2.1.7-3.9.1-5.7-.9l-.3-.2z"/><path fill="#92c740" d="M108.8 119.6a10.1 10.1 0 0 1 5.9.8l.5.6c-.2 4.2 3.1 7.1 4.5 10.7a96.7 96.7 0 0 1 3.4 12.8c-.3 3 .6 6-.5 8.9-5.1 2.8-5.6 2.7-9.3-3.3 2-1.5 4.6.2 7.3-1.7-3.6-1.6-7-.7-10.2-.9s-6.4-.4-7.7 4.2c-.7 2.6-7.7 3.6-10.7 2.3a17.5 17.5 0 0 0-3.3-.6c-1.5-5.9-2.7-11.8-2.1-18a7 7 0 0 1 2-3.9h10.9c.2-1.6-2-.5-1.8-1.9 7.7-.3 12.2-4.5 11.1-10z"/><path fill="#f6cb39" d="M82.6 82.4c4.3 12.7 4.3 12.7 2.9 17.4-.5-2.5-.4-4.4-1.7-5.9s-.3-2.5-2-2.1-1 1.9-1.2 3 .8 4.7-.9 6.7c-1.6-2-1.3-4-.1-6.1a25.4 25.4 0 0 1 3-13z"/><path fill="#f5c753" d="M79.6 95.4c0 2 0 4.1.1 6.1s-1.7 5.8 2.9 6a1.3 1.3 0 0 1 0 1.8l-3.9.2c-1.2-.6.1-1.4-.1-2a28.6 28.6 0 0 1 .1-12h.9z"/><path fill="#fdde89" d="M84.8 73.5c-.8 1.9-.7 4.2-2.2 5.9 0-1.1.2-2.3-1-3 .6-1 1.2-2 1.7-3a1.1 1.1 0 0 1 1.5.1z"/><path fill="#fbe1a0" d="M78.7 95.5c0 4-.1 8-.1 12a2.1 2.1 0 0 1-1-2c0-3.3.1-6.7.1-10z"/><path fill="#fdc985" d="M84.8 73.5h-1.5l1.4-3.8 1.9-.9a1.7 1.7 0 0 1 0 2.7z"/><path fill="#ffc731" d="M110.7 112.2l-4.1.3-2-.9c-2.9-2.9-6.9-.5-10.1-2.1h-1.9c-.9-.8-2.6-1-2-2.9s4.1-2.1 6-3.3a6.6 6.6 0 0 1 7.1-.4c3.8 2.5 7.8 2.3 12 2.4 1.7 0 4.4-.4 4.7 1.6s-2.6 2.5-4.4 3a4.2 4.2 0 0 0-2.5 1.4c-.7.8-1.8.5-2.8.9z"/><path fill="#fec831" d="M94.5 109.5c3.5.2 7.6-2.9 10.1 2.1-3.4-.6-7.2.9-10.1-2.1z"/><path fill="#dfca5d" d="M90.6 107.5a3.4 3.4 0 0 1 2 1.9h-4c-2 .8-4 1.4-6 .1v-2.1c1.4-1.3 3.1-1.4 4.9-1.3a4.4 4.4 0 0 1 3.1 1.4z"/><path fill="#f7f3ac" d="M82.6 109.6h6c-1.6 1.9-3.7 2-5.9 1.9a10.9 10.9 0 0 0-.1-1.9z"/><path fill="#fec831" d="M90.6 107.5h-3c-1.3-1.5-3.7-.5-5-2 5.6-2 9.6-8.1 16.8-6.2 1.9.5 4.8 1.2 5.4-2.4.2-1.2 1.3-1.4 2.3-1.4h21.4c-1.4 2.6-3.2 1.8-4.6 2s-2.9-.2-3.1 1.6-.6 2.8.5 3.8 2.5.6 3.8.1c4.3-1.8 8.3-5.8 13.4-1.7.7.6 2.2.1 3.1-.8 3.1-3.1 7-3.4 11-3l.5.2a1.7 1.7 0 0 0 2-.1h1.5c.4-.4.7-.4 1 0l1 2c-.8 3.1-3.6 3.7-6 4.9s-6.8 2.4-10.2 3.9a13.7 13.7 0 0 1-3.6.4c-6-.5-6-.5-12.7 3.4a13.5 13.5 0 0 1-4.7 2.2 7.7 7.7 0 0 1-4.5-.1 16.7 16.7 0 0 1-4.3-2.8c-.1-2 .7-3.1 2.9-2.9s2.9-.1 4.9-2h-8.7c-2.8-.1-5.3.2-7.7-2.2a5.4 5.4 0 0 0-7.3.3c-1.8 1.7-3.9 2.2-6.1 2.8z"/><path fill="#f5a420" d="M160.6 62.5c.5-.6-1-2.2 1-2a9.7 9.7 0 0 1 2.7 3 23 23 0 0 0 5 9.2c.9 2.4.3 6.1 4.7 5.5a14 14 0 0 1 5 .5c2.1 1.2 3.6 3.2 5.8 4.4a3.7 3.7 0 0 1 .7 1.4c.7 2.5.4 5.2.4 7.8a5.9 5.9 0 0 1-.7 2.9c-1 1.4-3.1 1.7-3 4.4s-1.9 2.3-3.7 1.5a7.3 7.3 0 0 1-2.5-3.5 5 5 0 0 1 .1-2.1 3.8 3.8 0 0 0 0-5.2 3.8 3.8 0 0 1 .8-3.1c1.5-2.5-.5-3-2.1-3.2a10.2 10.2 0 0 0-6.2.5c-2.4 1.4-2.1-1.1-3-2-1.3-6.9-5.2-12.7-8-19 .7-1.1 2.2 0 3-1z"/><path fill="#bc5f29" d="M176.7 95.5c0 .6-.1 1.3-.1 2a9.6 9.6 0 0 1-.8 6.2 25.3 25.3 0 0 1-1.8 3.7 1.3 1.3 0 0 1-1.2.3c-1.1-.6-1.3-1.7-1.7-2.7l-.6-1c-.6-1.2-1.8-1.7-2.5-2.8-2.4-2.9-4.1 0-6 .9a10.5 10.5 0 0 1-3.7 2.1 6.9 6.9 0 0 1-5.1-.2l-.6-.5 6-4c5.1-1.4 9.2-4.4 13.1-7.9.8-1.6 2.1-2.8 3-4.3s2.1-1.5 2.9.2-.5 2-.8 3a4.4 4.4 0 0 1-.1 5z"/><path fill="#fbc52e" d="M103.5 52.3c2.7-.5 5.6-.4 8.1-1.8 2.6 1.9 6.5-3.2 8.4 2-5.1 3.5-10.7 6-17.4 5a2.6 2.6 0 0 1-2.9.4c-1.9-2.6 1.3-2.8 2-4.2z"/><path fill="#fac932" d="M161.4 89.9c-2.6-2.8-3.1-6.1-5.5-8.3s1.4-3.3 1-5.3.7-1.4 1.8-1.2 2 2.1 2.1 3.6c.2 3.6 3.2 7.1.6 11.2z"/><path fill="#f8b837" d="M177.6 87.5c-.8-.1-2.2-1.1-2.3.2s-2.1 2.9-3.6 3.9c.6-3.1 3-6.9-3.1-7.1 3-2.9 6.3-2.7 9.5-.7s2.5 2.8-.5 3.7z"/><path fill="#fab443" d="M101.7 53.7l-2.1 3.7c-.3.4-.6.4-1 .1s-2.1 2.4-4 1.9c1.8-2.5 3.9-4.7 7.1-5.7z"/><path fill="#bd6828" d="M154.5 61.2c1.5 0 3.6-2.4 4 1.2-.7 1.1-2.1.1-2.9 1s-2.3-.6-1.1-2.2z"/><path fill="#e9d038" d="M86.6 71.4v-2.7l1.3-1.1a4.2 4.2 0 0 1 .5 4.5c-1.1 2-1.5.4-1.8-.7z"/><path fill="#f5cc3a" d="M82.6 105.5c1.9 0 4-.4 5 2h-5z"/><path fill="#f6c52f" d="M157.6 97.5h-1c1.2-1.4 2.6-2.2 4.6-1.6-.7 2.4-2.4 1.2-3.6 1.6z"/><path fill="#f0cf2f" d="M92.6 61.4c1.1.3 2.6-.5 3.9 1.5-2 .6-3.3 1-3.9-1.5z"/><path fill="#efcb2d" d="M98.6 57.5h4a2 2 0 0 1-4 0z"/><path fill="#fec243" d="M152.6 97.5c.1-.9.2-1.7 1.3-1.8s1.6.7 1.7 1.8a2.2 2.2 0 0 1-3 0z"/><path fill="#f8b837" d="M165.6 82.5c1.1.6 1.5 2.1 3 2-2.9 2.1-2.9 0-3-2z"/><path fill="#f89a41" d="M155.6 63.4c.7-1.1 1.8-1 2.9-1h2.1c-.7 1.2-1.9.9-3 1z"/><path fill="#88b74e" d="M122.6 153.4v-9.9a1.8 1.8 0 0 1-.2-2.1 1.7 1.7 0 0 1 1.4-.1 1.8 1.8 0 0 1-.1 2.1c-.5 4.7 1.4 9.6-1 14.1h-2.1c.5-1.4 2.2-2.3 2-4.1zm-2 4.1c-3 1.8-5.5 1.5-7-2 2.3.9 4.3 2.7 7 2z"/><path fill="#354b29" d="M123.7 143.4l-.2-1.7c-.4-1.4-.4-2.8-.9-4.2s.2-4.3-2.1-5.6a3.4 3.4 0 0 1-.6-1.2c-.6-2.3 2.3-2.5 2.5-4.2s.9-2.9 2.4-3.5a2.8 2.8 0 0 1 3.3 1.4c1.1 2.3.2 4.5-.5 6.7s-1.6 3.9-1.5 6.1.8 2.8-.2 4.2z"/><path fill="#899ea5" d="M125.9 141.4c-.3-1.3-.6-2.6-1-3.9a3.3 3.3 0 0 1 3.8-.6c2.2 2 5.7.3 7.9 2.6-3 2-5.9 4.1-9.7 4z"/><path fill="#98bf67" d="M157.6 43.4h-1c-.3-3.1 1.3-4.9 4-5.9a1.5 1.5 0 0 1 1.9-.3c.8.9.2 1.7-.2 2.5s-2.5 3.2-4.7 3.7z"/><path fill="#98c344" d="M155.5 35.3c0 .8 0 1.7-1.1 1.9s-1.7-1.1-1.7-2.3-.7-1.7.9-1.4 1.9.5 1.9 1.8zm7 2.1h-1.9c1.2-1.9 2.2-4.1 5-4 .6.9.1 1.8-.3 2.7s-1.3 2.2-2.8 1.3z"/><path fill="#96c159" d="M168.5 33.1c.9-2.7 3.3-1.2 4.9-1.8l.3.3c-.5 2.4-2.5 2.3-4.3 2.4a1.1 1.1 0 0 1-.9-.9z"/><path fill="#a2c672" d="M164.7 35.6l.9-2.1 2.9-.4v.4c-.2 2.5-1.7 2.9-3.8 2.1z"/><path fill="#94bf50" d="M177.6 31.5v-.7c8.4-3.9 11.8-3.4 17.2 2.6-2.1 2.6-4.9 1.1-7.4 1.3s-6.8-1.2-9.8-3.2z"/><path fill="#9bc06a" d="M187.4 33.6c2.5-.4 5 .8 7.4-.2l1.7.2c1 1.2-.1 2.5.2 3.8a3.4 3.4 0 0 1-.1 1c-1.1 1.1-2.2.4-3.3-.2s-5.2-1.5-5.9-4.6z"/><path fill="#f8f9ec" d="M187.4 33.6c1.7 2 4.9 1.4 6.4 3.8a3.1 3.1 0 0 1-4 1c-3.7-2.3-8.3-.8-11.9-3.1-.9-.6-1.7-.5-2.9.4s-6.2 3.1-9.4 4.2c-1.5.5-3 .9-4.2-.5l1.1-2 2.2-1.8a5.5 5.5 0 0 0 3.9-2.1l5.1-1.9h3.9c3.5-.3 6.5 1.4 9.8 2z"/><path fill="#f9faf7" d="M161.4 39.4c5.1-.4 9.5-2.6 13.7-5.2 1.2-.7 2.7-1 3.1-.5 3.3 4 9-.4 12.2 3.7.5.5 2.3 0 3.4 0s1.6 1.4 2.8 1 .1.6.2.8-1.1 1.9.1 2.1c4.3.5 7.2 4.1 11.8 4.4s.7 2.5-.1 3.8-3 2.4-4.9 3a12.9 12.9 0 0 1-3.9.3 1.6 1.6 0 0 1-.7-1.1 7 7 0 0 0-.2-3.5c-1.5-3.6-5.4-4.6-7.9-7l-1.3-.6c-3.8-1.2-7.6-4-11.5-.3s-5.1 5.2-5.7 9.3-3.2 4.8-4.4 7.6l-.5.4c-2.7-4.3-7-7.2-10.1-11.1 0-1 .1-2 .1-3.1s2.1-3.1 3.8-4z"/><path fill="#f4f7ef" d="M203.6 51.5c1.8-.3 3.7-.4 5-2 0 .7.1 1.4.1 2a47 47 0 0 1 5.1 12.5c.2 3.7.6 7.4-.5 11.1s-1.3 4.4-3.9 5.2a4.8 4.8 0 0 1-1.7 0c-3.8-1.3-2.9-4.2-2.5-7s.1-4.1.1-6.2a13.7 13.7 0 0 0-.9-4.9c-.6-2.3-2.3-4.2-2.3-6.7a5.9 5.9 0 0 0 1.5-4z"/><path fill="#97c34d" d="M212.7 63.5c-1-4.1-4.5-7.4-4-12 2-.6 2.4-2.9 3.9-4l1 1c.7 3.8 2.9 7.1 3 11-1.3.9-1.7 2.6-2.6 3.9a1.2 1.2 0 0 1-1.3.1z"/><path fill="#94c543" d="M213.6 63.5c-.1-2.2-.2-4.4 3-4a2.8 2.8 0 0 1 .1.9c1.3 3.6.5 7.4 1.3 11.1a67.7 67.7 0 0 1 0 7.8c-.5 2.7-.5 5.5-.9 8.3-.1.9 0 2-1.5 1.9-.7-1.8-2.5-2.2-4-3 .1-7.8 2.5-15.3 2-23z"/><path fill="#91c547" d="M216.6 111.5c-3.1.4-2.9-1.9-3.2-4.1-1.5.9 0 3-3 3.9 2-7-.2-14.2 5.2-19.8.3-.5.7-.5 1 0-1.2 6.6-1.6 13.3 0 20z"/><path fill="#96c34f" d="M216.6 91.5h-1v-2c2.6-3-.6-7.1 2-10 .3-.5.6-.5 1 0a30.9 30.9 0 0 1-2 12z"/><path fill="#8fc452" d="M217.6 71.5c-2.1-3.6-.5-7.4-.9-11.1 2.4 3.4 1.9 7.3 1.9 11.1-.4.5-.7.4-1 0z"/><path fill="#93c856" d="M217.6 71.5h1v8h-1z"/><path fill="#8eb959" d="M203.6 135.4c.6-.7.9-.4 1.1.3a1.9 1.9 0 0 1 .1 1.8 3.4 3.4 0 0 1-1.6 1c-16.5.7-33 .6-49.6.1-5.5-.2-11.2 1.6-16.7-.7a1.2 1.2 0 0 1-.1-1.7c20.5-.5 41-.1 61.5-.3 1.7 0 3.6.6 5.3-.5z"/><path fill="#92c548" d="M202.3 129.7c-2.1 2-25.8 3.1-33 0z"/><path fill="#96c160" d="M203.6 135.4c-1.2 1.6-3 1-4.6 1h-62.3a.4.4 0 0 1-.3-.6c.1-.2.1-.3.2-.3z"/><path fill="#a3b443" d="M191.6 82.5c1.1 7.2-1.2 13.9-3.4 20.5-.6 1.8-1.1 3.9-3.4 4.6l-.6-.5c-1.5-3 .7-5.4 1.6-8.1 2.6-5.6 2.7-11.6 2.2-17.7a1.9 1.9 0 0 1 1-1c1.5-.1 1.8 1.3 2.6 2.2z"/><path fill="#96c34f" d="M213.6 63.5c1.5 7.8.3 15.4-2 23l-1 1c-.8-1.7-.5-3.6-1.6-5.2a3.4 3.4 0 0 1-.3-2.6c3.9-2.2 3.6-6.2 4-9.9a44.2 44.2 0 0 0 0-6.3z"/><path fill="#385c2c" d="M204.7 136.3v-.6l2.5-2.3c.4-1.8 2-2.3 3.3-3 2.9-1.1 5.7-1.7 8.1 1.1a2 2 0 0 1 .5 1.5c-3.4 3.6-10.1 5.2-14.4 3.3z"/><path fill="#b16329" d="M166.5 125.4l-2.6.2c-2.9 2.7-3.8.7-4.5-1.9a2.8 2.8 0 0 1 .9-1 9.3 9.3 0 0 0 3.5-1.6l1.5-1.2a29.5 29.5 0 0 1 3.1-2.2 4.2 4.2 0 0 1 2.5-1 2.9 2.9 0 0 1 2.9 1.6c.4 1.4-.8 2-1.5 2.8a13 13 0 0 1-5.8 4.3z"/><path fill="#9dbb46" d="M162.6 127.4c-.1 2.1-1.4 4-3.2 3.8-5.2-.3-9.6 3.6-14.9 2.2a2 2 0 0 1-.4-1.3 2.4 2.4 0 0 1 .7-1.2c2.6-1.1 5.5-.2 7.9-1.8l1.3-.5c1.9-.2 3.4-1.3 5.2-1.9a6.5 6.5 0 0 1 3.4.7z"/><path fill="#b7672a" d="M162.6 127.4l-3.7.2c-1.6 1-3.8.3-5.2 2-1.6.6-3.2 1.2-4.8.4a2 2 0 0 1-.8-2.2c1-2.3 3.3-2.3 5.2-3s4-2.2 6.3-1 1.7 3.7 4.3 1.9z"/><path fill="#6b9b45" d="M218.6 131.5c-2.7-1.5-5.4-.8-8.2-.2-.7-.3-1.3-.8-.8-1.7s.3-3.8 3.1-2.6 3.8.4 5.7.3c.1 1.4.1 2.8.2 4.2z"/><path fill="#98c25c" d="M191.6 82.5c-1.1-.1-1.8-.5-1.9-1.7s1.7-1.4 2.9-1.6c3-.2 6.1-.1 9.2-.1a10.4 10.4 0 0 1 4.6 1.1 4.6 4.6 0 0 1 2.7 2.6 3.2 3.2 0 0 1-.3 1.4c-1.2 1.3-1.8 2.6-3.2-.4s-4.9-2.5-7.9-2.4-4.2.1-6.1 1.1z"/><path fill="#c06128" d="M173.7 118.5l-3.2-1.1c0-3.3 3-4.4 4.7-6.5a2.9 2.9 0 0 1 2.7-.6 3.1 3.1 0 0 1 1.5 3.2 2.4 2.4 0 0 1-.7 1.3c-2.1.3-2.2 3-4.1 3.6-.3.5-.6.6-.9.1z"/><path fill="#9ac33d" d="M197.6 99.9c-.2 1.2.5 3.2-1.3 3.2s-1.6-2.4-1.6-3.8-.7-3.6 1.5-3.4 1.1 2.6 1.4 4z"/><path fill="#a6bd48" d="M135.7 133.6v1.8a3.6 3.6 0 0 1-2.5 2.8c-1.4.2-2.8.4-3.8-.9s-.2-3.3 1.4-4.5 3.4-.8 4.9.8z"/><path fill="#a4bc49" d="M166.5 125.4l5.2-4.5a1.8 1.8 0 0 1 1.9.5c-1 3.8-3.8 4.4-7.1 4z"/><path fill="#acb444" d="M178.7 114.8v-1.1l.7-1.1a24.8 24.8 0 0 1 3.8-5.2 1.5 1.5 0 0 1 1.3-.1l.3.3c-.7 3.5-1.7 6.8-6.1 7.2z"/><path fill="#c2ac50" d="M135.7 133.6h-4.9a1.1 1.1 0 0 1 .2-1.6c4.6-1.1 9-1.6 13.4.4a4.1 4.1 0 0 1 .1 1.1z"/><path fill="#98c268" d="M209.6 129.6a8.9 8.9 0 0 1 .8 1.7l-3.2 2.1c-1.3-2.6 1.3-2.7 2.4-3.8z"/><path fill="#a4a53f" d="M173.6 121.4l-1.9-.5 2-2.4h.9c0 1 .2 2.2-1 2.9z"/><path fill="#467135" d="M208.8 84.2v-.8c.3-.7 0-1.6.9-2.1 1.5 1.9.9 4.1.9 6.2-1.5-.6-.7-2.5-1.8-3.3z"/><path fill="#5d9641" d="M133.6 137.4c.6-.7 1.3-1.3 2-2h1c0 .3.1.6.1.9a3 3 0 0 1-.2 1 1.9 1.9 0 0 1-2.9.1z"/><path fill="#465436" d="M222.5 155.4c-1.5-1.4-.8-3.3-.9-4.9s-.7-1.5-1.8-1-.7-1.3-.3-2.1h.2c.3-2.1-.7-4.2-.2-6.3a7.4 7.4 0 0 1 .4-1.4 2.9 2.9 0 0 1 1.4-1.5c1.1-.4 1.7.2 2.2 1.2z"/><path fill="#557244" d="M221.6 138.5l-1 .9c-2-1.9-.8-4.7-1.9-6.9 0-.4-.1-.7-.1-1l5.9-1c0 1.4.6 2.9-.9 4s-.5 3.1-2 4z"/><path fill="#4f6640" d="M221.6 138.5c.8-1.3-1.7-4.2 2-4 0 1.6-.1 3.3-.1 5z"/><path fill="#f49e2a" d="M168.6 72.5c-4-1.7-4.5-5.4-5-9-.1-1.1-1.7-1.7-1-3l1-1 2.2 3a4.9 4.9 0 0 1 2.7 2.2 10.1 10.1 0 0 1 1.3 5 3.6 3.6 0 0 1-1.2 2.8z"/><path fill="#de9e27" d="M162.6 60.5c0 1.1 2.2 1.5 1 3a3.1 3.1 0 0 1-2-3z"/><path fill="#cb522b" d="M167.5 64.6l-1.7-2.1 2.7-2 .5.5c.7 1.7.3 2.9-1.5 3.6z"/><path fill="#ebe3d5" d="M168.5 60.5l-.9-2.9v-.4c2.2-.8 3.2.8 4.2 2.3a1.3 1.3 0 0 1-.5 1.3 2.4 2.4 0 0 1-2.8-.2z"/><path fill="#f7f6f6" d="M204.5 197.9c1.1-11.5 8-23.9 15.4-27.7-2.2 11-7.7 19.4-15.4 27.7z"/><path fill="#dedddc" d="M199.3 248c3.2-2 6.2-1.4 9.6-.3-3.5 3.2-6.4 3-9.6.3z"/><path fill="#dbe6e7" d="M219.3 146.5c-4.6.1-9.2-.6-13.7 1-1.5-1.7-3.4-1-5.2-1h-72.7c.6-1.5 2-.8 3-1.2 12.3-.8 24.6-.3 36.9-.3s22-.5 32.9.3h4.2a11.8 11.8 0 0 1 3.3-1.2c3.8.1 7.8-.9 11.5 1 .5.5.5 1-.2 1.4z"/><path fill="#899ea5" d="M219.4 145.7l-11.8-.4c-1.5-.4-1.2-1.9-2-2.8-3.2.3-6.5.9-9.8.9h-27.2c-2.4-1.8-5.1-.7-7.7-1s-5.7.7-8.3-1v-2c1.9-1.6 4.1-1 6.2-1 16.6-.3 33.2.4 49.8-.4a14.1 14.1 0 0 1 7 1.6c1.7 1.8 6.1 1.8 3.8 6.1z"/><path fill="#899a9a" d="M209.7 139.4h-61.1a9.1 9.1 0 0 1-10 0h-2c-2.6-.9-6.1 1.9-8-2a.8.8 0 0 1 1.1-.3l3.9.2h70.9c2.2-.5 4.3-.7 5.2 2.1z"/><path fill="#87959a" d="M200.5 145.3h-69.8c1.1-1.1 2.5-.8 3.8-.8h62.3c1.3 0 2.7-.3 3.7.8z"/><path fill="#88a1a0" d="M152.6 141.5h12.3c1.5 0 3.4-.5 3.7 2h-12.2c-1.5-.1-3.4.4-3.8-2z"/><path fill="#899ea5" d="M138.6 139.5h10c-.1 1.4.5 2.9-1 4-2.6-2.3-6.3.2-9-2z"/><path fill="#87a1a5" d="M138.6 141.5c3 .9 6.7-2 9 2-2.9-.9-6.7 1.9-9-2z"/><path fill="#87959a" d="M205.6 142.5l2 2.8h-2.9z"/><path fill="#dbe6e7" d="M219.5 147.4l.3 2.1c-.1 1.6-.3 3.3-.4 4.9-1.3-1.5-.6-3.3-.8-5l-1.2-1.5z"/><path fill="#899a9a" d="M219.4 145.7c1.6-3.8-3.8-2.5-3.8-5.1a4.4 4.4 0 0 1 4.8-.1c.1 2.4.9 4.8-.7 7l-.4-1a2.2 2.2 0 0 0 .1-.8z"/><path fill="#fff" d="M216.6 149.5c.1.6 1.1 1.3 0 2s-1.4-.5-1.5-.8.8-1.1 1.5-1.2z"/><path fill="#3d5a2c" d="M123.6 127.4c.7 2.7-3.4.8-3 3.2-3.5-2.6-4.2-6.7-5.9-10.2 0-.6-.1-1.2-.1-1.8l1.2-1.3a1.8 1.8 0 0 1 2-.1c3.1 2.7 3.9 6.8 5.8 10.2z"/><path fill="#a55f3d" d="M117.7 117.5l-1.9-.2c0-1.6-1.5-2.4-2.1-3.7s1.9-.8 3-.2h4.8c1.2.7 2.1 1.8 3.3 2.5-1.9 2.5-4.4 2.6-7.1 1.6z"/><path fill="#feeb81" d="M116.7 113.4l-3 .2c-.9-.6-1.7-1.5-3-1.4l1.9-.8c1.7.1 3.2.2 4.1 2z"/><path fill="#93c055" d="M114.7 120.4c3.5 2.5 3.6 7 5.9 10.2a1.1 1.1 0 0 0 .1.8c2.1 1.6 1.7 4.1 2.3 6.3s.6 2.5-.3 3.6a16.2 16.2 0 0 0-.1 2.2c-3-3.7-1.9-8.9-4.8-12.7-.8-1-.4-2.7-1.8-3.8s-2.3-4.2-1.3-6.6z"/><path fill="#91c446" d="M96.4 149.6c-1.6-.4-4.3.4-3.9-1.9s1.8-4.6 4.3-4 3.8 1.5 3.7 3.8-2.8 1.5-4.1 2.1z"/><path fill="#b9602c" d="M138.8 107.6l3.6-.2a3.7 3.7 0 0 1 2.9-.3c1.1.9.4 1.7-.2 2.6l-1.1.8c-.9.5-1.9.9-1.4 2.2s1.3 1.3 2.3 1.4 2.9-1.8 4.7-.9a1.9 1.9 0 0 1 .5 1.9c-.9 2.2-3.3 3-4.7 4.7a5.9 5.9 0 0 0-2 5.1 3.5 3.5 0 0 1-.5 1.3c-5.5 1.4-5.7 1.1-5.6-6.3.1-3.6-.1-7.2-.2-10.8.2-1 1-1.2 1.7-1.5z"/><path fill="#ad632c" d="M124.9 115.7c-1.8.2-2.7-.9-3.4-2.3.9-1.5 3-.7 4.1-1.9s4.4-1.5 6.7-2.1 2.5 2.4.9 4.2-3.9.5-5.4 2a4.2 4.2 0 0 1-1.6 1.1c-.7.1-1.1-.3-1.3-1z"/><path fill="#f6b53e" d="M132.4 110.4l-6.8 1.1c3.5-4.5 8.2-4.7 13.2-3.9l-.9 1-1.1.8c-1.3 1.2-3 .1-4.4 1z"/><path fill="#b56729" d="M145.6 107.5h-3.2c3.1-2.1 6.7-2.9 10.2-3.9h.1c.5 4.9-1.8 6.1-7.1 3.9z"/><path fill="#f6c52f" d="M152.6 97.5h3c0 1.2-.4 2.5-1.7 2.5s-1.1-1.5-1.3-2.5z"/><path fill="#f69d25" d="M177.5 110.3l-1.8 1.2c-1.2.7-2.5 1-3.3-.4s.3-2.8 1.1-3.9l1.2-3.7c1.3.3 1.6-4.3 3.4-.6.1-.8-.3-1.8.5-2.4s3.8 1.6 2.6-1.8 1.3-3.1 3.3-3.3c1.4 1.4.4 2.8 0 4.2-1.9 3.9-2.9 8.3-7 10.7z"/><path fill="#bd5e28" d="M183.6 99.4l.9-4c0-.9.1-1.8.2-2.8a20.4 20.4 0 0 0 0-9.2c-1.5-1.3-3-2.7-4.6-3.9s-4.3 0-6.4-.8a1.2 1.2 0 0 1 .1-1.5c6.2-2.9 13.8-.3 14.7 9.4a23.5 23.5 0 0 1-2.6 12.9 1.6 1.6 0 0 1-2.3-.1z"/><path fill="#f29733" d="M168.6 72.5c0-1.1.1-2.2.1-3.2 2.8.4 2.7 3 3.6 4.8s.4 3.1 1.3 4.4v.9c-5.6.6-4.8-3.5-5-6.9z"/><path fill="#f19832" d="M178.6 100.5c.4 3.1-2.8 1.7-3.9 3 .6-2 1.3-4 1.9-6z"/><path fill="#f1972d" d="M180.7 79.4a4.5 4.5 0 0 1 4 4c-2.9.2-4.2-1.5-5.1-3.9a.7.7 0 0 1 1.1-.1z"/><path fill="#f69b2f" d="M176.7 95.5c.1-1.7.1-3.4.1-5 2.9 1.7 2.9 3.4-.1 5z"/><path fill="#f8984e" d="M184.7 83.4a9.7 9.7 0 0 1 0 9.2z"/><path fill="#f39241" d="M180.7 79.4h-7a1.3 1.3 0 0 1-.1-.6c2.4-.3 4.9-1.1 7.1.6z"/><path fill="#bf5a2a" d="M145.6 107.5c2.9-.4 7 1.3 7.1-4h5.9c2.1 1 1.2 2.6.9 4.1a11.3 11.3 0 0 1-2.3 3.4l-1.7 1.2c-1.8.9-3.3 3.4-5.8 1.3-1.9-.1-2.8 2.2-4.9 2s-3.2-.5-3.8-2.4.4-3.4 2.7-3.6c.7.5.6 2.3 1.7 1.7s-.5-1.1-.8-1.7.7-1.4 1-2z"/><path fill="#b95936" d="M158.7 107.7c-.2-1.4.9-2.9-.1-4.2l3-2.1c2.3-.5 4.7-1.8 7 .1a2.6 2.6 0 0 1 2.9 2.2c-1.3 1.2-3.2.9-4.7 1.6s-4.9 3.4-8.1 2.4z"/><path fill="#f49b3c" d="M173.5 107.2c.3 1.7-2.1 4.7 2.2 4.3l-5.2 5.9-1.9 1a3.8 3.8 0 0 1-1-3.4 6.1 6.1 0 0 1 .5-1.2c.7-.7 2.4-.6 1.9-2.4a7.5 7.5 0 0 1 .8-2.4 2.9 2.9 0 0 1 1.8-1.6z"/><path fill="#c2562e" d="M168.6 101.5c-2.3-.6-4.7 1.6-7-.1 1.1-2.9 4.1-2.5 6.3-3.3s.5 2.2.7 3.4z"/><path fill="#ba573d" d="M174.2 96.1c-1.6 1.5-2.8 1.8-4.2.3 1.2-1.3 2.5-1.1 4.2-.3z"/><path fill="#a65a2f" d="M172.6 107.4l-1 2c-.8.4-1.2-.1-1.6-.7a4.4 4.4 0 0 1 .9-3.8 1.4 1.4 0 0 1 1.1-.4c.8.9.6 1.9.6 2.9z"/><path fill="#d89ab9" d="M166.7 104.5c1.4-1.5 3.2-.8 4.8-.8a2.2 2.2 0 0 0 .5.8h-.8a3 3 0 0 1-4.5 0z"/><path fill="#3d572c" d="M122.7 141.3l-.3-3.8a.8.8 0 0 1 1.2 0c.1 1.4 1 2.8-.1 4.2z"/><path fill="#f0ebe0" d="M124.9 115.7l.9.8c1.7 2.6.6 4.8-1.1 7s-.7 2.6-1.1 3.9c-3.8-2.2-3.4-6.9-5.9-9.9z"/><path fill="#f2dfb2" d="M126.5 131.1c-.2-2.3 1.7-4.3.9-6.7s1.1-5 1.6-7.6 1.1-3 2.9-2.6 1.6 2.2 1.4 3.7c-.5 3.4-.2 6.9-1.6 10.1a14 14 0 0 1-1.5 3c-2.5 2.6-2.8 2.6-3.7.1z"/><path fill="#49522e" d="M129.8 117.2c-.2 2.6-.5 5.2-2.4 7.2l-2.7-.9c-.6-2.5 1.5-4.6 1.1-7l.9-1c1.8-1 3.3-1.1 3.1 1.7z"/><path fill="#dddfac" d="M126.5 131.1c1.5 2.6 2-.2 2.9-.6a2 2 0 0 1 1.3 1.9c0 .4.1.7.1 1.1s-1 2.4-1.1 3.7l-1.1.3h-3.7a9.2 9.2 0 0 1 1.6-6.4z"/><path fill="#3d5a2c" d="M123.6 137.5h-1.2c-.6-2-1.1-4-1.7-6.1 4.7.3 2.3 3.9 2.9 6.1z"/><path fill="#dfebeb" d="M171.6 59.3c-1.8.3-2.3-1.9-3.9-2.1 3-6.1 3.6-13.5 9.9-17.7 4.2 2.2 8.7-.1 13 1 2.4 1.8.5 2.6-.9 3.5s-3.9.4-5.8.9l-1.1.6a6.7 6.7 0 0 0-2.7 2.3 30.6 30.6 0 0 1-3 3.2 5.3 5.3 0 0 0-1.9 2.9 3.3 3.3 0 0 1-.6 1 5.9 5.9 0 0 0-2 2.9 2.7 2.7 0 0 1-1 1.5z"/><path fill="#3f4c35" d="M202.6 55.6l2.7 5.8a2.2 2.2 0 0 1-2.6.6c-3.5-2.9-5.1-7.3-8.8-10a17 17 0 0 0-10.5-5.8c-.6-.4-1.1-.9-.8-1.7 2-1 4.1-.3 6.2-.5s5.5 1.9 7.9 3.5a9.6 9.6 0 0 1 2.9 4 1 1 0 0 0 .2.9 5 5 0 0 1 2.8 3.2z"/><path fill="#e2edf3" d="M190.6 40.5c-3.1 1.8-6.6.7-10 1.3a2.4 2.4 0 0 1-3-2.3c4.3-3.3 8.3-3 13 1zm6 7.9c-2.5-1-4.2-3.5-7-4 0-.2-.1-.4-.1-.6s2.3-1.7 1.1-3.3c3.8.3 9.3 5.3 9 8-1 .8-2-.1-3-.1z"/><path fill="#dfe8d8" d="M202.6 55.6l-2.8-3.2a5.6 5.6 0 0 1 3.8-.9 3.4 3.4 0 0 1-1 4.1z"/><path fill="#f4f7ef" d="M196.6 48.4c1.1-1.5 2-.2 3 .1a2.6 2.6 0 0 1 0 3z"/><path fill="#3f532f" d="M192.4 80.4l-2.7.4h-1l-.4-.6a2.4 2.4 0 0 1 2.6-2.4c1.6 0 .1-.9.5-1.2a3.2 3.2 0 0 1 1-1l2-.4c2.6-.3 5.6 1 7.8-.3s.4-5.1 2.1-7.3a1.2 1.2 0 0 1 1.4-.3c1 2-.2 4.2.8 6.2s-2 4.5 1.1 6c.5 1.1-.2 1.5-1 1.8l-4-.8a20.7 20.7 0 0 0-10.2-.1z"/><path fill="#43512d" d="M205.6 67.5h-.9c-2-1.6-2.9-3.5-2-6h2.6c.8 1.6 1.7 3.2 1.3 5.1-.4.2-.4.8-1 .9z"/><path fill="#283420" d="M205.6 67.5l1-1a11.2 11.2 0 0 1-.1 7c-1.6-1.9-.5-4.1-.9-6z"/><path fill="#436631" d="M206.6 81.3a16.2 16.2 0 0 1 1-1.8l1.1.2a14 14 0 0 0 1 1.6l-.9 2.1z"/><path fill="#6b934e" d="M220.4 140.5h-4.8l-5.9-1.2c-1.4-1.5-3.3-1.7-5.2-2a4.3 4.3 0 0 0 .2-1.1c5-.1 9.8-.9 14-3.8 3.6 1.5 1.2 4.6 1.9 6.9-.1.5-.1.9-.2 1.2z"/><path fill="#b0612b" d="M173.6 78.5c-2.7-.2-1.7-2.4-2.1-3.9s-.9-2.4.3-3 2 .8 2.9 1.5 2.7.5 4.1.8 2.5.5 3.7.9a16.3 16.3 0 0 1 3.4 1.9 12 12 0 0 1 2.8 3.5.6.6 0 0 0 0 .6 26.6 26.6 0 0 1-1.9 18.8.8.8 0 0 1-1.2-.1c1.1-5 2.9-9.8 1.2-14.9s-6.4-8.6-13.2-6.1z"/><path fill="#b16328" d="M185.6 99.5h1.2c-.5 2.6-2.5 4.8-2.3 7.7l-.9.3a9.7 9.7 0 0 0-4 5.7l-.9.4-1.2-3.4c2.1-3.6 4.1-7.2 6.1-10.9z"/><path fill="#f69c37" d="M159.6 123.7c-2 .5-3.7 2-6 1.8h-1.9c-1.2-.2-2.2-.4-2.4-1.9a2.4 2.4 0 0 1 2.1-1.5 7.9 7.9 0 0 0 5-1.2l4.2-2.1c1.3-.6 2.6-1.2 4-.7s1.5 1.3 1 2.5l-1 1c-1.1 1-2.7 1.2-4 2z"/><path fill="#f19a28" d="M165.6 120.5a15.1 15.1 0 0 0-1.1-2.2 3.2 3.2 0 0 1 .8-3.1 3.6 3.6 0 0 1 3.2-1c0 1.4.1 2.8.1 4.2s-1.9 1.5-3 2.1z"/><path fill="#b7672a" d="M160.6 123.5a5.7 5.7 0 0 1 4-2c-.8 1.8-2.3 2.1-4 2z"/><path fill="#a1702b" d="M148.6 129.4h5.1c-2.6 2.6-5.9 1.7-9 2.1s-5.5.8-8.3-.2c-.6-1.9.6-2.8 2.2-3 3.4-.2 6.8-1 10 1.1z"/><path fill="#958030" d="M136.5 131.4l8.2.2c-.1.2-.1.5-.2.7h-13.8a2.2 2.2 0 0 1-1.3-1.9 21.2 21.2 0 0 0 1.1-2.1 8.2 8.2 0 0 0 4.9 2.2z"/><path fill="#a1702b" d="M153.7 129.6c.6-3.5 3.3-1.7 5.2-2-1.3 1.8-3.2 2.1-5.2 2z"/><path fill="#ef9935" d="M152.6 124.5a4.7 4.7 0 0 1 1 1c-1.3 1.5-3.5.7-5 1.9s-3.7.9-5.7 1.1-4.9.2-7.4-.2a3.1 3.1 0 0 1-1.3-1c-.1-3.1-.6-6.2 1.6-9 1.8-.4 2 1.2 2.8 2.1-.2 5.5-.2 5.5 4 5.1a5.8 5.8 0 0 1 4.7-1.3c1.8 0 3.5 1.6 5.3.3z"/><path fill="#c95c29" d="M142.8 127.6l5.8-.2v2h-8.2c-1.6 0-3.4-.4-3.9 1.9h-.8c-1.2-1.2-5.3-.9-2.4-4.3a1.3 1.3 0 0 1 1.3.4h.2a13.6 13.6 0 0 0 8 .2z"/><path fill="#92c640" d="M192.4 80.4c3.4-1.1 6.8-1.4 10.2.1z"/><path fill="#9c732b" d="M179.6 113.3c.1-2.7-.3-5.9 4-5.7-.5 2.4-2.4 4-4 5.7z"/><path fill="#b2602d" d="M174.6 74.5l-2.6-2.2a18.9 18.9 0 0 1-.5 2.3c-1.3-1.5-1.1-4-2.8-5.3l-1.2-4.7a6.9 6.9 0 0 0 1.1-4h3c.8 2 .5 4.4 2 6.3s2.9 4.7 1 7.6z"/><path fill="#f6f6f1" d="M172.5 66.5c-1.5-1.8-2.3-3.8-.9-6v-1.2c.1-.7.1-1.4.2-2.2s1.6-2 2.8-2.6v-.9c.5-1.4 1.8-2.3 2-3.7l3.1-2.5c1.1-1.3 2.7-1.5 4.2-1.8 4.6 0 8 2.3 10.8 5.8a1.9 1.9 0 0 1 .2 1.9c-2.3 1.2-3.2-1.1-4.7-1.9s-3-1.6-4.5-.2-1.7 1.9-2.6 2.9a9.1 9.1 0 0 0-1.1 1.6c-3.4 5.6-1.3 11.1.3 16.7a3.1 3.1 0 0 1-.6 1.3c-3.3.8-5.2-1.3-6.8-3.6s-1.2-2.6-2.4-3.6z"/><path fill="#ed98b0" d="M151.5 122.5l-1.9 1a2.2 2.2 0 0 1-2 1.4c-1.5-.7-3.3 0-4.8-.7s.2-3.6 1.9-4.8a1 1 0 0 1 1.2-.2c1.7 1.3 3.8.9 5.7 1.5a2.4 2.4 0 0 1 1.1.9c-.1.8-.1 1.6-1.2.9z"/><path fill="#f8a43b" d="M138.6 120.4a3.3 3.3 0 0 1-2-2c-1.9-3.1-2.3-6.2-.4-9.5l1.7-.3c1.3 3.9.7 7.9.7 11.8z"/><path fill="#c0533a" d="M144.6 109.5c1.9-.3 2.8.4 2.5 2.4s-1.6 1.7-2.7 1.5c-3.2-.7-.3-2.6-.7-3.9z"/><path fill="#bc6653" d="M149.7 113.5c2.6 1 3.6-2.5 5.9-2.1 1.6 2.6 0 3.7-2 4.7a5.1 5.1 0 0 1-3 .1 1.7 1.7 0 0 1-1-1z"/><path fill="#da908c" d="M145.6 119.6l-.9-.2c1-2.1 3.1-3 4.9-4.2v.5a1.3 1.3 0 0 1 .5 1.2 1.7 1.7 0 0 1-.5 1.2c-1.2.9-2 2.6-4 1.5z"/><path fill="#b66339" d="M142.8 124.2a4.1 4.1 0 0 1 4.7.4c.7.3.6.6-.1.8h-4.8c.1-.4.1-.8.2-1.2z"/><path fill="#a6672e" d="M133.6 127.4c-1.9 2.7 2.1 2.3 2.1 4-2.3-.1-5.2 1-5.2-3s1.1-7.2 1.6-10.8c.2-1 1-2.5-.8-2.7s-1 1.5-1.5 2.3c-.3-1.9-1.7-1.8-3.1-1.7.9-3.7 4-1.3 6-2.1s3 2.6 2.5 4.8-.9 6.2-1.6 9.2z"/><path fill="#c36329" d="M133.6 127.4c-1.8-2.5-.2-5 .4-7.3s.6-4.8-1.3-6.7 3.5-2.3-.3-3c1-1.2 2.5-1.1 3.8-1.5.1 3.2.2 6.3.4 9.5-1.6 2.8-.5 6.2-2 9.1z"/><path fill="#de9cb9" d="M166.7 104.5h4.5c1.1 1.5-1.1 2.5-.7 3.9s-.9 1.6-2.1 1c-2.6-2.3-5.5-1.3-8 2.5-1 1.5-.8 4.7-4.2 3.3 0-1.4-.5-2.9.5-4.2s1.4-2.1 2-3.2c2.7-1.1 4.7-3.8 8-3.3z"/><path fill="#daa4b8" d="M156.7 110.9c0 1.5 0 3.1-.1 4.6s-1.8 3.3-4.1 2.1a1.7 1.7 0 0 1 .1-2.2c1.9-.7 3.7-1.4 3-4 .3-.4.5-.8 1.1-.5z"/><path fill="#ba6845" d="M168.5 114.2l-2.7 1.4a1 1 0 0 1-1.3 0c-.3-2.8 1.4-3.8 3.8-4.4a1.8 1.8 0 0 1 .9 1 1.9 1.9 0 0 1-.5 1.3 2.5 2.5 0 0 0-.2.7z"/><path fill="#bf6a33" d="M168.7 112.6l-.2-1.2a1.2 1.2 0 0 1-.2-1.5l.4-.3 1.8-1.3 1.1 1.1a20 20 0 0 1-1 2.1c-.4.8-.9 1.4-1.9 1.1z"/><path fill="#f19a28" d="M168.7 112.6a11.8 11.8 0 0 0 1.9-1.1c.9 1.2.1 2.2-.5 3.2l-1.4-1.2z"/><path fill="#3f4e3c" d="M183.9 45.6a8 8 0 0 1-4.2 1.8c.1-1.8 1.3-2.6 2.9-2.9zm5.6-1.8a1.3 1.3 0 0 0 .1.6h-7c2.2-1.7 4.5-1 6.9-.6z"/><path fill="#5f6c68" d="M174.6 54.5c-.8 1.1-.4 3.3-2.8 2.6.6-1.2.5-3.2 2.8-2.6z"/><path fill="#26392d" d="M176.6 49.9c.6 1.9-.7 2.8-2 3.7-.6-2 .9-2.7 2-3.7z"/><path fill="#eff0ec" d="M194.6 53.5v-2.1c3.7 2.5 5.7 6.5 8 10.1.7 2 1.4 4 2 6v1.9c.1 7.1.1 7.1-7.1 7l-5.9.2c-.9.2-1.2-.2-1.4-1 1.4-2.4 4-3.8 4.6-6.6s1.9-6.6.6-10c0-1.9-1.6-3.5-.8-5.5z"/><path fill="#363618" d="M188.7 80.2c-1.5-.2-2.2-1.4-3.2-2.4.5-1.2 1.7-1.4 2.8-1.5a6.2 6.2 0 0 1 3.2 1.1c0 1.9-2.7 1.1-2.8 2.8z"/><path fill="#8c9779" d="M191.5 77.4h-2.9a1.4 1.4 0 0 1-.3-1.5 1.5 1.5 0 0 1 2.5-.3l.9 1a2.4 2.4 0 0 1-.2.8z"/><path fill="#f9e1df" d="M172.5 66.5c3.6 1.6 4.5 6.5 8.9 7-.2 2.3-1.6 1.3-2.8 1s-2.7 2-4 0-1.7-5.3-2.1-8z"/><path fill="#bdb194" d="M188.6 76.3v1.1l-3.1.4-3-2.3a2.4 2.4 0 0 1 .6-1.1l1.2-.4a6.8 6.8 0 0 1 2.4.8 7 7 0 0 1 1.9 1.5z"/><path fill="#dac2a7" d="M183.6 74.6l-1.1.9c-1.3-.4-2.8.1-3.9-1 .9-.4 2.2.2 2.8-1a1.9 1.9 0 0 1 .2-.8c1.9-.6 1.8.8 2 1.9z"/><path fill="#ba7142" d="M164.5 115.4l1.3.2c-.4.9-.8 1.8-1.3 2.7l-3.8 1.2a1.8 1.8 0 0 1-2 .2c-.5-3.4 2.6-3.4 4.4-4.7a2.3 2.3 0 0 1 1.4.4z"/><path fill="#c26c3e" d="M158.5 119.4h2.2a6.3 6.3 0 0 1-4 2.1.9.9 0 0 1-1.3-.2c.2-1.9 1-2.8 3.1-1.9z"/><path fill="#c96e2e" d="M155.3 121.3l1.4.3c-1.6.9-3 3.1-5.2.9l1.2-1 .4-.4a1.8 1.8 0 0 1 2.2.2z"/><path fill="#ec9950" d="M147.4 125.4a2.2 2.2 0 0 0 .1-.8l2.1-1.1c.8 1.2 1.9.9 3 1-1.5 1.6-3.4.8-5.2.9z"/><path fill="#f5844c" d="M142.8 127.6c-2.7 1.1-5.4 1.7-8-.2z"/><path fill="#3a4e2d" d="M183.6 74.6l-2-1.9c-3.3-6.1-4-12.2-.1-18.3l.6.5a6.2 6.2 0 0 1 .8 3.3c-.1 2.5.8 4 3.7 3.9s3.1.8 2.6 3a3 3 0 0 1-1.5 1.2c-1.2.8-3.8.6-2.6 3.1s2.8 2.1 4.7 1.2 1.7-1.1 2.6-1.5a2.8 2.8 0 0 1 2.8-.1l.5.5c-.4 3-2.4 4.8-4.9 6.1a1.9 1.9 0 0 0-2.2.7c-.8-.1-1.6.1-2.1-.7s-1.7-1.4-2.9-1.4z"/><path fill="#3d4a36" d="M194.6 53.5l1.8 4.9c-1.4.7-2.8 1.3-4.1-.2-.1-3.1-1.8-4-4.6-3.2l-2.8-.4a2.9 2.9 0 0 1-2.5-1.3c.8-.9 1.5-1.8 2.3-2.6s3.9-.7 5.9-.4z"/><path fill="#3a5a2b" d="M182.4 53.3l3.2.2c.6 1.5 1.2 3.5-.7 4.2s-2-2-3.1-3l-.3-.3z"/><path fill="#e2e7d6" d="M190.6 50.3l-5.9.4c1.8-2.7 3.8-1.7 5.9-.4z"/><path fill="#d89ab9" d="M152.6 117.4c1.9.5 2.9-.9 4-1.9 3-2.8 3.1-8 8.2-8.9 1.3-.3 2.6-1.7 4-.7s-.5 2.4-.1 3.7h.1c-2.4 1.3-3.9 3.6-5.9 5.3s-6.8 4.4-10.2 6.6h-1.1c-1.6-.9-5.8-.4-2-4a2.3 2.3 0 0 1 3-.1z"/><path fill="#de9cb9" d="M149.6 117.4c-2 2.7.8 2.9 2 4-2-.6-4.9 1.7-6-1.8zm3 0h-3v-1.7l3-.3z"/><path fill="#e19dad" d="M162.7 114.4c1.3-2.4 2.5-5.2 6.1-4.8l-.3 1.8-4 4h-.9a1.3 1.3 0 0 1-.9-1z"/><path fill="#3a4e2d" d="M192.8 58.5c1.2 0 2.4-1.1 3.6-.1 1.2 3.8 1.3 7.6-.7 11.1l-.3-.2c-3.5-.8-2.6-3.6-2.7-5.9-3 .6-4.5-1-5.4-3.6a2.4 2.4 0 0 1 .2-1.4 5.3 5.3 0 0 1 5.3.1z"/><path fill="#35381e" d="M183.6 74.2c1.6-.9 2.7-.7 2.9 1.4z"/><path fill="#de9cb9" d="M162.7 114.4l.9 1-5.1 4a4.7 4.7 0 0 0-3.2 1.9l-2.6.2c2.6-3.3 6.5-4.9 10-7.1z"/><path fill="#354f25" d="M187.8 58.2c.6 2.8 1.5 5 5.3 3.4 1.1-.5 2.9.1 1.3 2s.1 3.9 1 5.7l-2.8.2a21.6 21.6 0 0 0-4-4c-.2-1 .5-2.8-1.5-2.2-5.3 1.3-5.9-1.6-5.5-5.7.1-1 .1-2 .2-2.9 1.9-.4 1.5 1.7 2.6 2.4l1.2-3.6a2.1 2.1 0 0 1 2 .9 2.7 2.7 0 0 1 .2 3.8z"/><path fill="#345025" d="M188.6 65.5c3.1-.5 4.5.9 4 4s-3.6 3.3-5.8 2.8-4.5-1.7-3.9-4.3 3.4-2.4 5.7-2.5z"/><path fill="#dde4da" d="M187.8 58.2c-.1-1.3-.1-2.5-.2-3.8 1.5-1.2 3-2.2 4.8-.7s1.3 3.1.4 4.8-3.4.7-5-.3z"/></svg>