<svg xmlns="http://www.w3.org/2000/svg" id="Layer_1" viewBox="0 0 100 100" width="100" height="100"><style>.st0{fill:#d8d8d8}</style><path d="M100 50c0 27.6-22.4 50-50 50S0 77.6 0 50 22.4 0 50 0s50 22.4 50 50zM47.8 63.2c2.1 1.6 4.7 2.5 7.3 2.4 3.8 0 7.5-1.4 10.4-3.8 3-2.5 5.2-5.8 6.5-9.5 1-3 1.6-6.1 1.8-9.3.3-3.9-.6-7.8-2.6-11.2-3-5-7.9-8.6-13.5-9.9-3.5-.8-7-1-10.5-.5-4 .4-7.9 1.9-11.2 4.1-6.4 4.5-9.9 10.6-9.8 18.6 0 2.5.6 5 1.7 7.2 1.1 2.4 3 4.3 5.5 5.3.6.4 1.4.2 1.7-.4.1-.2.2-.3.2-.5.2-.8.4-1.7.7-2.5s.1-1.7-.5-2.3c-.9-1-1.6-2.3-1.9-3.7-.5-2-.5-4.1-.1-6.1.7-4.7 3.5-8.9 7.6-11.4 4.3-2.6 9.5-3.4 14.4-2 5.5 1.2 9.6 5.9 9.8 11.6.3 3.9-.3 7.7-1.6 11.4-.7 2.4-2 4.5-3.8 6.3-1.7 1.8-4.1 2.7-6.6 2.5-2.8-.3-4.9-2.6-4.8-5.5.1-1 .3-2 .6-3 .7-2.4 1.4-4.7 2.1-7.1.5-1.5.7-3.1.5-4.7-.1-1.2-.6-2.3-1.5-3.1-1.6-1.3-3.7-1.5-5.5-.6-1.7.8-3 2.3-3.7 4.1-1.2 3.2-1.2 6.7.1 9.8.1.2.1.5 0 .7-1.3 5.6-2.6 11.2-4 16.8-.7 2.8-1.1 5.7-1.1 8.6 0 2.3.2 4.5.5 6.8 0 .2.1.5.4.5.2 0 .5-.1.6-.3.8-1.1 1.6-2.1 2.3-3.2 1.8-2.6 3.2-5.5 4.1-8.5.7-2.8 1.4-5.5 2.1-8.3l.3-1c.3.6.9 1.2 1.5 1.7z" class="st0"/></svg>